<?xml version="1.0" encoding="UTF-8" standalone="no"?>
<!DOCTYPE svg PUBLIC "-//W3C//DTD SVG 1.1//EN" "http://www.w3.org/Graphics/SVG/1.1/DTD/svg11.dtd">
<svg width="100%" height="100%" viewBox="0 0 1920 1080" version="1.1" xmlns="http://www.w3.org/2000/svg" xmlns:xlink="http://www.w3.org/1999/xlink" xml:space="preserve" xmlns:serif="http://www.serif.com/" style="fill-rule:evenodd;clip-rule:evenodd;stroke-linecap:round;stroke-linejoin:round;stroke-miterlimit:1.5;">
    <g transform="matrix(0.987013,0,0,0.947902,264.45,26.5684)">
        <rect x="0" y="-0.636" width="722.934" height="1081.27" style="fill:white;stroke:black;stroke-width:8.26px;"/>
    </g>
    <g transform="matrix(1,0,0,1,251.931,-14.0831)">
        <rect x="793.755" y="37.178" width="580.929" height="131.051" style="fill:white;stroke:black;stroke-width:7.99px;"/>
    </g>
    <g transform="matrix(1.85459,0,0,1,-326.707,108.347)">
        <g transform="matrix(1,0,0,1,543,449.999)">
            <path d="M0,38L-79,38C-81.2,38 -83,36.2 -83,34L-83,4C-83,1.8 -81.2,0 -79,0L0,0C2.2,0 4,1.8 4,4L4,34C4,36.2 2.2,38 0,38" style="fill:rgb(2,117,216);"/>
        </g>
        <g transform="matrix(0.539204,0,0,1,214.529,0)">
            <text x="476.092px" y="473px" style="font-family:'ArialMT', 'Arial', sans-serif;font-size:16px;fill:white;">Gen<tspan x="506.188px " y="473px ">e</tspan>ra<tspan x="529.166px " y="473px ">t</tspan>e <tspan x="546.808px " y="473px ">C</tspan>on<tspan x="576.013px " y="473px ">ﬁ</tspan>g</text>
        </g>
    </g>
    <g transform="matrix(1,0,0,1,-701.031,108.041)">
        <g transform="matrix(1,0,0,1,1123.06,449.999)">
            <path d="M0,38L-74.624,38C-76.824,38 -78.624,36.2 -78.624,34L-78.624,4C-78.624,1.8 -76.824,0 -74.624,0L0,0C2.2,0 4,1.8 4,4L4,34C4,36.2 2.2,38 0,38" style="fill:rgb(217,83,79);"/>
        </g>
        <text x="1059.82px" y="473px" style="font-family:'ArialMT', 'Arial', sans-serif;font-size:16px;fill:white;">R<tspan x="1071.25px 1081.79px 1092.34px 1102.89px " y="473px 473px 473px 473px ">ESET</tspan></text>
    </g>
    <g transform="matrix(1,0,0,1,-1460.18,-355.31)">
        <text x="1800px" y="567.99px" style="font-family:'ArialMT', 'Arial', sans-serif;font-size:16px;fill:rgb(55,58,60);">Rou<tspan x="1829.46px " y="567.99px ">t</tspan>er</text>
        <g transform="matrix(1,0,0,1,13.8443,33.3288)">
            <text x="1800px" y="567.99px" style="font-family:'ArialMT', 'Arial', sans-serif;font-size:16px;fill:rgb(55,58,60);">UR0<tspan x="1832.12px " y="567.99px ">1</tspan>.S<tspan x="1856.24px " y="567.99px ">O</tspan>ME<tspan x="1892.79px " y="567.99px ">P</tspan>LA<tspan x="1923.14px " y="567.99px ">C</tspan>E.<tspan x="1949.92px " y="567.99px ">C</tspan>OM<tspan x="1987.35px " y="567.99px ">C</tspan>AS<tspan x="2020.36px 2028.39px 2032.87px " y="567.99px 567.99px 567.99px ">T.N</tspan>ET</text>
        </g>
        <g transform="matrix(-1,0,0,1,3629.01,-6007.38)">
            <rect x="1814" y="6595.69" width="1" height="16" style="fill:rgb(55,58,60);"/>
        </g>
        <g transform="matrix(1,0,0,1,2146,615.999)">
            <path d="M0,-38L-342,-38C-344.2,-38 -346,-36.2 -346,-34L-346,-4C-346,-1.8 -344.2,0 -342,0L0,0C2.2,0 4,-1.8 4,-4L4,-34C4,-36.2 2.2,-38 0,-38M0,-37C1.654,-37 3,-35.654 3,-34L3,-4C3,-2.346 1.654,-1 0,-1L-342,-1C-343.654,-1 -345,-2.346 -345,-4L-345,-34C-345,-35.654 -343.654,-37 -342,-37L0,-37" style="fill:rgb(102,175,233);fill-rule:nonzero;"/>
        </g>
    </g>
    <g transform="matrix(1,0,0,1,-1460.18,-275.31)">
        <text x="1800px" y="567.99px" style="font-family:'ArialMT', 'Arial', sans-serif;font-size:16px;fill:rgb(55,58,60);">She<tspan x="1828.58px " y="567.99px ">l</tspan>f</text>
        <g transform="matrix(1,0,0,1,13.8443,33.3288)">
            <text x="1800px" y="567.99px" style="font-family:'ArialMT', 'Arial', sans-serif;font-size:16px;fill:rgb(55,58,60);">760<tspan x="1826.8px " y="567.99px ">0</tspan>-E<tspan x="1851.81px " y="567.99px ">S</tspan>20<tspan x="1880.38px " y="567.99px ">-</tspan>2X<tspan x="1905.39px " y="567.99px ">1</tspan>0G</text>
        </g>
        <g transform="matrix(-1,0,0,1,3629.01,-6007.38)">
            <rect x="1814" y="6595.69" width="1" height="16" style="fill:rgb(55,58,60);"/>
        </g>
        <g transform="matrix(1,0,0,1,2146,615.999)">
            <path d="M0,-38L-342,-38C-344.2,-38 -346,-36.2 -346,-34L-346,-4C-346,-1.8 -344.2,0 -342,0L0,0C2.2,0 4,-1.8 4,-4L4,-34C4,-36.2 2.2,-38 0,-38M0,-37C1.654,-37 3,-35.654 3,-34L3,-4C3,-2.346 1.654,-1 0,-1L-342,-1C-343.654,-1 -345,-2.346 -345,-4L-345,-34C-345,-35.654 -343.654,-37 -342,-37L0,-37" style="fill:rgb(102,175,233);fill-rule:nonzero;"/>
        </g>
    </g>
    <g transform="matrix(1,0,0,1,-1460.18,-195.31)">
        <text x="1800px" y="567.99px" style="font-family:'ArialMT', 'Arial', sans-serif;font-size:16px;fill:rgb(55,58,60);">Int<tspan x="1817.9px " y="567.99px ">e</tspan>rf<tspan x="1836.67px " y="567.99px ">a</tspan>ce<tspan x="1862.58px " y="567.99px "> </tspan>(P<tspan x="1883.13px " y="567.99px ">o</tspan>rt<tspan x="1901.91px " y="567.99px ">)</tspan></text>
        <g transform="matrix(1,0,0,1,13.8443,33.3288)">
            <text x="1800px" y="567.99px" style="font-family:'ArialMT', 'Arial', sans-serif;font-size:16px;fill:rgb(55,58,60);">1x1<tspan x="1825.9px " y="567.99px ">0</tspan>GE<tspan x="1858.03px " y="567.99px "> </tspan>XF<tspan x="1883.02px 1893.44px 1897.92px " y="567.99px 567.99px 567.99px ">P P</tspan>1</text>
        </g>
        <g transform="matrix(-1,0,0,1,3629.01,-6007.38)">
            <rect x="1814" y="6595.69" width="1" height="16" style="fill:rgb(55,58,60);"/>
        </g>
        <g transform="matrix(1,0,0,1,2146,615.999)">
            <path d="M0,-38L-342,-38C-344.2,-38 -346,-36.2 -346,-34L-346,-4C-346,-1.8 -344.2,0 -342,0L0,0C2.2,0 4,-1.8 4,-4L4,-34C4,-36.2 2.2,-38 0,-38M0,-37C1.654,-37 3,-35.654 3,-34L3,-4C3,-2.346 1.654,-1 0,-1L-342,-1C-343.654,-1 -345,-2.346 -345,-4L-345,-34C-345,-35.654 -343.654,-37 -342,-37L0,-37" style="fill:rgb(102,175,233);fill-rule:nonzero;"/>
        </g>
    </g>
    <g transform="matrix(1,0,0,1,-1460.18,-115.31)">
        <text x="1800px" y="567.99px" style="font-family:'ArialMT', 'Arial', sans-serif;font-size:16px;fill:rgb(55,58,60);">Ser<tspan x="1825.01px " y="567.99px ">v</tspan>ic<tspan x="1844.67px " y="567.99px ">e</tspan></text>
        <g transform="matrix(1,0,0,1,13.8443,33.3288)">
            <text x="1800px" y="567.99px" style="font-family:'ArialMT', 'Arial', sans-serif;font-size:16px;fill:rgb(55,58,60);">VOD<tspan x="1834.78px " y="567.99px "> </tspan>(V<tspan x="1855.04px 1858.63px " y="567.99px 567.99px ">id</tspan>eo<tspan x="1885.43px " y="567.99px "> </tspan>On<tspan x="1911.33px " y="567.99px "> </tspan>De<tspan x="1936.33px " y="567.99px ">m</tspan>an<tspan x="1967.57px " y="567.99px ">d</tspan>)</text>
        </g>
        <g transform="matrix(-1,0,0,1,3629.01,-6007.38)">
            <rect x="1814" y="6595.69" width="1" height="16" style="fill:rgb(55,58,60);"/>
        </g>
        <g transform="matrix(1,0,0,1,2146,615.999)">
            <path d="M0,-38L-342,-38C-344.2,-38 -346,-36.2 -346,-34L-346,-4C-346,-1.8 -344.2,0 -342,0L0,0C2.2,0 4,-1.8 4,-4L4,-34C4,-36.2 2.2,-38 0,-38M0,-37C1.654,-37 3,-35.654 3,-34L3,-4C3,-2.346 1.654,-1 0,-1L-342,-1C-343.654,-1 -345,-2.346 -345,-4L-345,-34C-345,-35.654 -343.654,-37 -342,-37L0,-37" style="fill:rgb(102,175,233);fill-rule:nonzero;"/>
        </g>
    </g>
    <g transform="matrix(1,0,0,1,380.244,35.9902)">
        <text x="53.203px" y="76.039px" style="font-family:'ArialMT', 'Arial', sans-serif;font-size:48px;">Comcast W<tspan x="300.351px 327.047px " y="76.039px 76.039px ">eb</tspan> UI</text>
    </g>
    <g transform="matrix(1,0,0,1,353.643,19.1687)">
        <text x="793.755px" y="83.022px" style="font-family:'ArialMT', 'Arial', sans-serif;font-size:64px;">IPControl <tspan x="1074.79px 1117.47px " y="83.022px 83.022px ">AP</tspan>I</text>
    </g>
    <g transform="matrix(1,0,0,1,251.931,-14.0831)">
        <g transform="matrix(1,-0,-0,1,-251.931,14.0831)">
            <path d="M1138.96,178.167L1152.25,152.566L1164.76,178.559C1158.4,172.012 1145.51,171.816 1138.96,178.167Z"/>
            <path d="M981.687,460.83L1147.56,460.83C1147.56,460.83 1150.88,242.246 1151.93,173.204" style="fill:none;stroke:black;stroke-width:8.6px;"/>
        </g>
    </g>
    <g transform="matrix(1,0,0,1,251.931,-14.0831)">
        <g transform="matrix(1,-0,-0,1,-251.931,14.0831)">
            <path d="M1517.23,427.206L1504.33,453.006L1491.43,427.206C1497.88,433.656 1510.78,433.656 1517.23,427.206Z"/>
            <path d="M1504.33,149.436L1504.33,432.366" style="fill:none;stroke:black;stroke-width:8.6px;"/>
        </g>
    </g>
    <g transform="matrix(1,0,0,1,251.931,-14.0831)">
        <rect x="1094.35" y="474.913" width="330.171" height="377.115" style="fill:white;stroke:black;stroke-width:8.6px;"/>
    </g>
    <g transform="matrix(1,0,0,1,251.931,-14.0831)">
        <text x="1116.26px" y="535.94px" style="font-family:'ArialMT', 'Arial', sans-serif;font-size:50.244px;">CISCO</text>
        <text x="1116.26px" y="587.828px" style="font-family:'ArialMT', 'Arial', sans-serif;font-size:50.244px;">CONFIG</text>
        <text x="1116.26px" y="639.716px" style="font-family:'ArialMT', 'Arial', sans-serif;font-size:50.244px;">TEMPLA<tspan x="1313.56px 1344.25px " y="639.716px 639.716px ">TE</tspan></text>
    </g>
</svg>
