<?xml version="1.0" encoding="UTF-8" standalone="no"?>
<!DOCTYPE svg PUBLIC "-//W3C//DTD SVG 1.1//EN" "http://www.w3.org/Graphics/SVG/1.1/DTD/svg11.dtd">
<svg width="100%" height="100%" viewBox="0 0 134 26" version="1.1" xmlns="http://www.w3.org/2000/svg" xmlns:xlink="http://www.w3.org/1999/xlink" xml:space="preserve" xmlns:serif="http://www.serif.com/" style="fill-rule:evenodd;clip-rule:evenodd;stroke-linejoin:round;stroke-miterlimit:2;">
    <g transform="matrix(1,0,0,1,-262.894,-234.56)">
        <g transform="matrix(16.6667,0,0,16.6667,266.736,246.876)">
            <path d="M1.255,-0.57C1.255,-0.546 1.249,-0.525 1.238,-0.507C1.227,-0.49 1.212,-0.476 1.196,-0.468C1.179,-0.459 1.162,-0.454 1.146,-0.454C1.131,-0.454 1.116,-0.458 1.103,-0.466C1.089,-0.473 1.08,-0.482 1.076,-0.492L0.833,-0.086C0.814,-0.055 0.798,-0.033 0.783,-0.02C0.768,-0.007 0.75,-0 0.731,-0C0.686,-0 0.661,-0.029 0.655,-0.086L0.623,-0.38L0.421,-0.086C0.398,-0.052 0.379,-0.029 0.365,-0.018C0.35,-0.006 0.334,-0 0.315,-0C0.274,-0 0.25,-0.032 0.241,-0.096L0.177,-0.548C0.175,-0.561 0.171,-0.572 0.166,-0.58C0.16,-0.588 0.153,-0.596 0.144,-0.603C0.138,-0.608 0.134,-0.613 0.131,-0.617C0.128,-0.62 0.127,-0.624 0.127,-0.629C0.124,-0.654 0.138,-0.666 0.171,-0.666L0.42,-0.666C0.435,-0.666 0.447,-0.663 0.455,-0.657C0.462,-0.65 0.466,-0.642 0.465,-0.631C0.465,-0.626 0.464,-0.621 0.461,-0.616C0.458,-0.611 0.454,-0.606 0.451,-0.602C0.444,-0.594 0.438,-0.586 0.435,-0.579C0.432,-0.572 0.431,-0.562 0.432,-0.55L0.458,-0.309L0.608,-0.524L0.605,-0.548C0.604,-0.561 0.6,-0.571 0.595,-0.579C0.59,-0.587 0.582,-0.595 0.573,-0.602C0.566,-0.608 0.562,-0.613 0.559,-0.617C0.556,-0.62 0.555,-0.624 0.555,-0.629C0.552,-0.654 0.566,-0.666 0.599,-0.666L0.849,-0.666C0.864,-0.666 0.876,-0.663 0.884,-0.657C0.892,-0.65 0.896,-0.642 0.895,-0.631C0.895,-0.622 0.89,-0.613 0.881,-0.602C0.874,-0.594 0.869,-0.586 0.866,-0.579C0.863,-0.572 0.861,-0.562 0.862,-0.55L0.874,-0.332L1.009,-0.568C1.031,-0.606 1.052,-0.632 1.073,-0.648C1.094,-0.663 1.121,-0.67 1.154,-0.67C1.184,-0.67 1.208,-0.661 1.227,-0.643C1.246,-0.625 1.255,-0.601 1.255,-0.57Z" style="fill:white;fill-rule:nonzero;"/>
        </g>
        <g transform="matrix(16.6667,0,0,16.6667,285.969,246.876)">
            <path d="M0.348,0.006C0.292,0.006 0.242,-0.004 0.197,-0.025C0.152,-0.046 0.117,-0.076 0.091,-0.117C0.064,-0.157 0.051,-0.206 0.051,-0.263C0.051,-0.303 0.058,-0.346 0.072,-0.393C0.103,-0.493 0.149,-0.565 0.211,-0.61C0.273,-0.654 0.339,-0.676 0.41,-0.676C0.448,-0.676 0.482,-0.67 0.511,-0.659C0.54,-0.648 0.567,-0.631 0.592,-0.61L0.619,-0.631C0.637,-0.645 0.652,-0.655 0.665,-0.66C0.677,-0.665 0.691,-0.668 0.706,-0.668C0.723,-0.668 0.736,-0.664 0.746,-0.657C0.756,-0.65 0.761,-0.639 0.761,-0.625C0.761,-0.618 0.76,-0.61 0.757,-0.603L0.701,-0.447C0.695,-0.429 0.688,-0.416 0.68,-0.409C0.671,-0.402 0.659,-0.398 0.642,-0.398C0.625,-0.398 0.611,-0.404 0.6,-0.417C0.589,-0.429 0.576,-0.45 0.562,-0.48C0.546,-0.511 0.533,-0.532 0.523,-0.542C0.513,-0.552 0.498,-0.557 0.479,-0.557C0.452,-0.557 0.425,-0.54 0.4,-0.506C0.375,-0.473 0.352,-0.422 0.331,-0.355C0.314,-0.298 0.305,-0.251 0.305,-0.213C0.305,-0.18 0.311,-0.155 0.324,-0.139C0.337,-0.122 0.354,-0.114 0.375,-0.114C0.406,-0.114 0.432,-0.121 0.453,-0.135C0.473,-0.149 0.494,-0.168 0.515,-0.192C0.528,-0.207 0.539,-0.218 0.548,-0.225C0.556,-0.232 0.565,-0.235 0.574,-0.235C0.586,-0.235 0.599,-0.229 0.612,-0.217C0.625,-0.205 0.632,-0.193 0.631,-0.181C0.632,-0.166 0.62,-0.144 0.596,-0.113C0.571,-0.082 0.538,-0.055 0.495,-0.031C0.452,-0.006 0.403,0.006 0.348,0.006Z" style="fill:white;fill-rule:nonzero;"/>
        </g>
        <g transform="matrix(16.6667,0,0,16.6667,297.503,246.876)">
            <path d="M0.764,-0.463C0.753,-0.424 0.733,-0.394 0.704,-0.373C0.675,-0.351 0.638,-0.337 0.593,-0.332C0.625,-0.329 0.649,-0.32 0.665,-0.304C0.681,-0.288 0.689,-0.267 0.689,-0.241C0.689,-0.231 0.687,-0.219 0.684,-0.204L0.673,-0.155C0.672,-0.148 0.671,-0.144 0.671,-0.141C0.671,-0.132 0.673,-0.126 0.677,-0.122C0.681,-0.117 0.687,-0.115 0.694,-0.115C0.708,-0.115 0.718,-0.113 0.725,-0.109C0.731,-0.105 0.733,-0.098 0.731,-0.087C0.728,-0.072 0.72,-0.057 0.707,-0.042C0.694,-0.027 0.675,-0.015 0.651,-0.006C0.626,0.004 0.597,0.009 0.562,0.009C0.518,0.009 0.483,-0.001 0.457,-0.021C0.431,-0.04 0.418,-0.068 0.418,-0.105C0.418,-0.119 0.42,-0.134 0.424,-0.15L0.44,-0.214C0.443,-0.223 0.444,-0.232 0.444,-0.241C0.444,-0.256 0.439,-0.267 0.429,-0.274C0.418,-0.281 0.402,-0.284 0.379,-0.284L0.341,-0.284L0.295,-0.118C0.294,-0.114 0.293,-0.109 0.293,-0.103C0.293,-0.094 0.295,-0.086 0.3,-0.079C0.305,-0.072 0.311,-0.065 0.319,-0.058C0.325,-0.053 0.33,-0.049 0.333,-0.045C0.336,-0.04 0.338,-0.036 0.338,-0.031C0.338,-0.02 0.333,-0.012 0.322,-0.007C0.311,-0.002 0.296,-0 0.275,-0L0.024,-0C0.007,-0 -0.006,-0.003 -0.015,-0.01C-0.024,-0.016 -0.027,-0.025 -0.024,-0.036C-0.023,-0.042 -0.02,-0.047 -0.016,-0.051C-0.013,-0.054 -0.007,-0.058 0,-0.063C0.011,-0.07 0.02,-0.077 0.027,-0.084C0.034,-0.091 0.039,-0.103 0.043,-0.118L0.165,-0.549C0.168,-0.558 0.169,-0.566 0.169,-0.574C0.169,-0.581 0.168,-0.588 0.166,-0.593C0.163,-0.598 0.16,-0.603 0.156,-0.61C0.15,-0.619 0.147,-0.626 0.147,-0.631C0.147,-0.633 0.148,-0.637 0.149,-0.642C0.152,-0.651 0.158,-0.657 0.167,-0.661C0.175,-0.664 0.189,-0.666 0.208,-0.666L0.543,-0.666C0.589,-0.666 0.629,-0.659 0.664,-0.645C0.698,-0.631 0.724,-0.612 0.743,-0.588C0.761,-0.563 0.77,-0.536 0.77,-0.505C0.77,-0.491 0.768,-0.477 0.764,-0.463ZM0.508,-0.473C0.511,-0.488 0.513,-0.5 0.513,-0.508C0.513,-0.543 0.494,-0.561 0.455,-0.561L0.413,-0.561L0.369,-0.384L0.411,-0.384C0.437,-0.384 0.458,-0.39 0.472,-0.403C0.488,-0.416 0.499,-0.439 0.508,-0.473Z" style="fill:white;fill-rule:nonzero;"/>
        </g>
        <g transform="matrix(16.6667,0,0,16.6667,313.486,246.876)">
            <path d="M0.374,-0.672C0.411,-0.672 0.446,-0.668 0.477,-0.659C0.509,-0.65 0.541,-0.635 0.574,-0.616L0.597,-0.635C0.613,-0.648 0.626,-0.656 0.636,-0.661C0.647,-0.666 0.659,-0.668 0.672,-0.668C0.688,-0.668 0.701,-0.665 0.71,-0.658C0.719,-0.651 0.724,-0.64 0.724,-0.627C0.724,-0.622 0.723,-0.616 0.721,-0.61L0.679,-0.472C0.674,-0.456 0.669,-0.445 0.662,-0.438C0.655,-0.431 0.644,-0.428 0.63,-0.428C0.615,-0.428 0.603,-0.433 0.592,-0.442C0.581,-0.451 0.563,-0.469 0.54,-0.497C0.517,-0.524 0.496,-0.543 0.476,-0.554C0.458,-0.565 0.438,-0.57 0.418,-0.57C0.403,-0.57 0.391,-0.565 0.381,-0.556C0.371,-0.546 0.366,-0.534 0.366,-0.52C0.366,-0.504 0.374,-0.489 0.39,-0.475C0.406,-0.462 0.431,-0.445 0.465,-0.424C0.5,-0.403 0.528,-0.385 0.551,-0.368C0.574,-0.351 0.593,-0.331 0.609,-0.306C0.625,-0.281 0.633,-0.253 0.633,-0.221C0.633,-0.2 0.63,-0.18 0.623,-0.159C0.607,-0.106 0.576,-0.065 0.53,-0.038C0.484,-0.01 0.43,0.004 0.369,0.004C0.323,0.004 0.284,-0.001 0.253,-0.012C0.222,-0.023 0.19,-0.041 0.157,-0.066L0.121,-0.036C0.104,-0.022 0.091,-0.013 0.08,-0.008C0.069,-0.003 0.057,-0 0.044,-0C0.029,-0 0.017,-0.004 0.008,-0.011C-0.001,-0.018 -0.006,-0.028 -0.006,-0.041C-0.006,-0.048 -0.005,-0.055 -0.002,-0.062L0.047,-0.211C0.052,-0.228 0.06,-0.241 0.069,-0.248C0.078,-0.255 0.09,-0.259 0.105,-0.259C0.12,-0.259 0.134,-0.254 0.147,-0.243C0.159,-0.232 0.175,-0.213 0.195,-0.185C0.216,-0.154 0.236,-0.133 0.255,-0.121C0.273,-0.109 0.295,-0.103 0.32,-0.103C0.338,-0.103 0.352,-0.106 0.362,-0.112C0.371,-0.117 0.378,-0.126 0.382,-0.139C0.383,-0.142 0.384,-0.147 0.384,-0.154C0.384,-0.17 0.376,-0.185 0.361,-0.198C0.346,-0.211 0.322,-0.227 0.29,-0.246C0.256,-0.267 0.228,-0.285 0.207,-0.302C0.186,-0.318 0.167,-0.338 0.152,-0.363C0.136,-0.388 0.128,-0.417 0.128,-0.45C0.128,-0.473 0.132,-0.496 0.139,-0.519C0.153,-0.565 0.182,-0.602 0.225,-0.63C0.268,-0.658 0.318,-0.672 0.374,-0.672Z" style="fill:white;fill-rule:nonzero;"/>
        </g>
        <g transform="matrix(16.6667,0,0,16.6667,324.969,246.876)">
            <path d="M0.801,-0.666C0.838,-0.666 0.856,-0.651 0.856,-0.621C0.856,-0.612 0.854,-0.6 0.85,-0.586L0.826,-0.505C0.819,-0.48 0.81,-0.463 0.799,-0.453C0.788,-0.443 0.773,-0.438 0.753,-0.438C0.736,-0.438 0.724,-0.442 0.715,-0.451C0.706,-0.46 0.697,-0.473 0.689,-0.492L0.672,-0.533C0.667,-0.546 0.661,-0.554 0.655,-0.559C0.649,-0.564 0.64,-0.566 0.627,-0.566L0.604,-0.566L0.477,-0.119C0.475,-0.11 0.474,-0.103 0.474,-0.096C0.474,-0.088 0.475,-0.081 0.477,-0.076C0.48,-0.071 0.483,-0.065 0.488,-0.059C0.494,-0.05 0.497,-0.042 0.497,-0.036C0.497,-0.035 0.496,-0.031 0.495,-0.026C0.492,-0.017 0.485,-0.011 0.475,-0.007C0.466,-0.003 0.452,-0.001 0.434,-0.001L0.199,-0.001C0.185,-0.001 0.174,-0.003 0.167,-0.008C0.159,-0.013 0.155,-0.019 0.155,-0.028C0.155,-0.032 0.156,-0.036 0.158,-0.04C0.161,-0.046 0.164,-0.051 0.168,-0.054C0.171,-0.057 0.177,-0.06 0.184,-0.065C0.194,-0.071 0.202,-0.078 0.209,-0.085C0.216,-0.092 0.221,-0.104 0.226,-0.119L0.352,-0.566L0.329,-0.566C0.314,-0.566 0.302,-0.564 0.293,-0.559C0.284,-0.554 0.274,-0.546 0.263,-0.533L0.23,-0.492C0.215,-0.474 0.2,-0.461 0.186,-0.452C0.171,-0.443 0.156,-0.438 0.139,-0.438C0.124,-0.438 0.112,-0.442 0.103,-0.45C0.094,-0.458 0.09,-0.469 0.09,-0.483C0.09,-0.49 0.091,-0.497 0.093,-0.505L0.119,-0.596C0.124,-0.615 0.13,-0.629 0.137,-0.639C0.144,-0.648 0.153,-0.655 0.166,-0.66C0.178,-0.664 0.195,-0.666 0.218,-0.666L0.801,-0.666Z" style="fill:white;fill-rule:nonzero;"/>
        </g>
        <g transform="matrix(16.6667,0,0,16.6667,337.619,246.876)">
            <path d="M0.611,-0.531C0.624,-0.577 0.642,-0.612 0.665,-0.635C0.688,-0.658 0.719,-0.67 0.76,-0.67C0.792,-0.67 0.818,-0.66 0.837,-0.64C0.856,-0.619 0.866,-0.594 0.866,-0.564C0.866,-0.554 0.864,-0.542 0.861,-0.529C0.854,-0.5 0.841,-0.478 0.822,-0.466C0.803,-0.453 0.783,-0.446 0.761,-0.446C0.75,-0.446 0.74,-0.447 0.731,-0.449C0.722,-0.45 0.713,-0.452 0.705,-0.455L0.646,-0.238C0.625,-0.159 0.589,-0.098 0.539,-0.057C0.489,-0.015 0.421,0.006 0.335,0.006C0.256,0.006 0.195,-0.009 0.152,-0.039C0.108,-0.069 0.086,-0.116 0.086,-0.179C0.086,-0.21 0.091,-0.243 0.102,-0.28L0.178,-0.549C0.181,-0.558 0.182,-0.566 0.182,-0.574C0.182,-0.582 0.181,-0.589 0.179,-0.594C0.176,-0.599 0.173,-0.604 0.169,-0.611C0.163,-0.62 0.16,-0.627 0.16,-0.632C0.16,-0.635 0.161,-0.638 0.162,-0.642C0.165,-0.651 0.171,-0.657 0.18,-0.661C0.189,-0.664 0.203,-0.666 0.221,-0.666L0.456,-0.666C0.485,-0.666 0.499,-0.657 0.499,-0.64C0.499,-0.636 0.499,-0.633 0.498,-0.63C0.496,-0.624 0.493,-0.619 0.49,-0.616C0.486,-0.612 0.48,-0.608 0.473,-0.603C0.462,-0.597 0.454,-0.59 0.447,-0.583C0.44,-0.576 0.435,-0.564 0.43,-0.549L0.343,-0.243C0.337,-0.22 0.334,-0.201 0.334,-0.185C0.334,-0.14 0.358,-0.118 0.406,-0.118C0.435,-0.118 0.46,-0.128 0.48,-0.147C0.499,-0.166 0.516,-0.198 0.529,-0.244L0.611,-0.531Z" style="fill:white;fill-rule:nonzero;"/>
        </g>
        <g transform="matrix(16.6667,0,0,16.6667,350.419,246.876)">
            <path d="M0.479,-0.666C0.579,-0.666 0.654,-0.647 0.705,-0.609C0.756,-0.57 0.781,-0.514 0.781,-0.44C0.781,-0.403 0.774,-0.361 0.761,-0.313C0.739,-0.236 0.709,-0.174 0.672,-0.129C0.635,-0.084 0.586,-0.051 0.525,-0.03C0.464,-0.009 0.385,0.001 0.29,-0L0.018,-0.001C0.004,-0.001 -0.007,-0.003 -0.014,-0.008C-0.022,-0.013 -0.026,-0.019 -0.026,-0.027C-0.026,-0.031 -0.025,-0.035 -0.023,-0.04C-0.021,-0.046 -0.018,-0.05 -0.014,-0.053C-0.011,-0.056 -0.005,-0.059 0.002,-0.064C0.013,-0.07 0.021,-0.077 0.028,-0.084C0.034,-0.091 0.039,-0.103 0.044,-0.119L0.166,-0.549C0.169,-0.558 0.17,-0.566 0.17,-0.574C0.17,-0.581 0.169,-0.588 0.167,-0.593C0.164,-0.598 0.161,-0.603 0.157,-0.61C0.151,-0.619 0.148,-0.626 0.148,-0.631C0.148,-0.633 0.149,-0.637 0.15,-0.642C0.153,-0.651 0.159,-0.657 0.168,-0.661C0.177,-0.664 0.19,-0.666 0.209,-0.666L0.479,-0.666ZM0.505,-0.335C0.522,-0.398 0.531,-0.447 0.531,-0.483C0.531,-0.518 0.524,-0.543 0.509,-0.556C0.494,-0.569 0.473,-0.576 0.446,-0.576L0.424,-0.576L0.289,-0.09L0.313,-0.09C0.344,-0.09 0.37,-0.097 0.391,-0.11C0.411,-0.123 0.431,-0.147 0.449,-0.182C0.467,-0.217 0.486,-0.268 0.505,-0.335Z" style="fill:white;fill-rule:nonzero;"/>
        </g>
        <g transform="matrix(16.6667,0,0,16.6667,362.953,246.876)">
            <path d="M0.444,-0.666C0.458,-0.666 0.469,-0.664 0.476,-0.66C0.484,-0.655 0.488,-0.649 0.488,-0.641C0.488,-0.638 0.487,-0.633 0.485,-0.628C0.483,-0.623 0.48,-0.619 0.476,-0.616C0.473,-0.612 0.469,-0.609 0.467,-0.608C0.464,-0.606 0.461,-0.604 0.46,-0.603C0.449,-0.597 0.441,-0.59 0.434,-0.583C0.427,-0.576 0.422,-0.564 0.417,-0.549L0.296,-0.118C0.293,-0.109 0.292,-0.101 0.292,-0.093C0.292,-0.085 0.293,-0.078 0.296,-0.073C0.298,-0.068 0.301,-0.062 0.306,-0.056C0.312,-0.047 0.315,-0.04 0.315,-0.035C0.315,-0.034 0.314,-0.03 0.313,-0.025C0.31,-0.016 0.304,-0.009 0.295,-0.006C0.286,-0.002 0.272,-0 0.253,-0L0.018,-0C0.004,-0 -0.007,-0.002 -0.014,-0.007C-0.022,-0.012 -0.026,-0.018 -0.026,-0.026C-0.026,-0.03 -0.025,-0.034 -0.023,-0.039C-0.02,-0.046 -0.016,-0.052 -0.01,-0.056C-0.004,-0.06 -0,-0.062 0.001,-0.063C0.012,-0.07 0.02,-0.077 0.027,-0.084C0.034,-0.091 0.039,-0.102 0.044,-0.118L0.166,-0.549C0.169,-0.558 0.17,-0.566 0.17,-0.574C0.17,-0.581 0.169,-0.588 0.167,-0.593C0.164,-0.598 0.161,-0.603 0.157,-0.61C0.151,-0.619 0.148,-0.626 0.148,-0.631C0.148,-0.633 0.149,-0.637 0.15,-0.642C0.153,-0.651 0.159,-0.657 0.168,-0.661C0.177,-0.664 0.19,-0.666 0.209,-0.666L0.444,-0.666Z" style="fill:white;fill-rule:nonzero;"/>
        </g>
        <g transform="matrix(16.6667,0,0,16.6667,369.686,246.876)">
            <path d="M0.487,-0.681C0.571,-0.681 0.637,-0.661 0.684,-0.622C0.731,-0.582 0.755,-0.525 0.755,-0.45C0.755,-0.415 0.75,-0.377 0.739,-0.336C0.719,-0.261 0.688,-0.198 0.646,-0.146C0.604,-0.094 0.554,-0.055 0.496,-0.028C0.438,-0.001 0.375,0.012 0.307,0.012C0.224,0.012 0.158,-0.008 0.111,-0.048C0.064,-0.087 0.04,-0.144 0.04,-0.219C0.04,-0.253 0.046,-0.292 0.057,-0.336C0.076,-0.41 0.107,-0.473 0.149,-0.525C0.19,-0.576 0.24,-0.615 0.298,-0.642C0.355,-0.668 0.418,-0.681 0.487,-0.681ZM0.469,-0.583C0.449,-0.583 0.431,-0.575 0.415,-0.559C0.399,-0.543 0.383,-0.517 0.368,-0.481C0.352,-0.444 0.335,-0.394 0.317,-0.329C0.29,-0.236 0.277,-0.171 0.277,-0.136C0.277,-0.115 0.281,-0.1 0.288,-0.091C0.295,-0.082 0.307,-0.077 0.323,-0.077C0.343,-0.077 0.361,-0.085 0.377,-0.102C0.393,-0.118 0.409,-0.144 0.424,-0.18C0.439,-0.216 0.456,-0.266 0.475,-0.329C0.501,-0.421 0.514,-0.486 0.514,-0.523C0.514,-0.544 0.51,-0.56 0.503,-0.569C0.496,-0.578 0.484,-0.583 0.469,-0.583Z" style="fill:white;fill-rule:nonzero;"/>
        </g>
        <g transform="matrix(16.6667,0,0,16.6667,381.569,246.876)">
            <path d="M0.374,-0.672C0.411,-0.672 0.446,-0.668 0.477,-0.659C0.509,-0.65 0.541,-0.635 0.574,-0.616L0.597,-0.635C0.613,-0.648 0.626,-0.656 0.636,-0.661C0.647,-0.666 0.659,-0.668 0.672,-0.668C0.688,-0.668 0.701,-0.665 0.71,-0.658C0.719,-0.651 0.724,-0.64 0.724,-0.627C0.724,-0.622 0.723,-0.616 0.721,-0.61L0.679,-0.472C0.674,-0.456 0.669,-0.445 0.662,-0.438C0.655,-0.431 0.644,-0.428 0.63,-0.428C0.615,-0.428 0.603,-0.433 0.592,-0.442C0.581,-0.451 0.563,-0.469 0.54,-0.497C0.517,-0.524 0.496,-0.543 0.476,-0.554C0.458,-0.565 0.438,-0.57 0.418,-0.57C0.403,-0.57 0.391,-0.565 0.381,-0.556C0.371,-0.546 0.366,-0.534 0.366,-0.52C0.366,-0.504 0.374,-0.489 0.39,-0.475C0.406,-0.462 0.431,-0.445 0.465,-0.424C0.5,-0.403 0.528,-0.385 0.551,-0.368C0.574,-0.351 0.593,-0.331 0.609,-0.306C0.625,-0.281 0.633,-0.253 0.633,-0.221C0.633,-0.2 0.63,-0.18 0.623,-0.159C0.607,-0.106 0.576,-0.065 0.53,-0.038C0.484,-0.01 0.43,0.004 0.369,0.004C0.323,0.004 0.284,-0.001 0.253,-0.012C0.222,-0.023 0.19,-0.041 0.157,-0.066L0.121,-0.036C0.104,-0.022 0.091,-0.013 0.08,-0.008C0.069,-0.003 0.057,-0 0.044,-0C0.029,-0 0.017,-0.004 0.008,-0.011C-0.001,-0.018 -0.006,-0.028 -0.006,-0.041C-0.006,-0.048 -0.005,-0.055 -0.002,-0.062L0.047,-0.211C0.052,-0.228 0.06,-0.241 0.069,-0.248C0.078,-0.255 0.09,-0.259 0.105,-0.259C0.12,-0.259 0.134,-0.254 0.147,-0.243C0.159,-0.232 0.175,-0.213 0.195,-0.185C0.216,-0.154 0.236,-0.133 0.255,-0.121C0.273,-0.109 0.295,-0.103 0.32,-0.103C0.338,-0.103 0.352,-0.106 0.362,-0.112C0.371,-0.117 0.378,-0.126 0.382,-0.139C0.383,-0.142 0.384,-0.147 0.384,-0.154C0.384,-0.17 0.376,-0.185 0.361,-0.198C0.346,-0.211 0.322,-0.227 0.29,-0.246C0.256,-0.267 0.228,-0.285 0.207,-0.302C0.186,-0.318 0.167,-0.338 0.152,-0.363C0.136,-0.388 0.128,-0.417 0.128,-0.45C0.128,-0.473 0.132,-0.496 0.139,-0.519C0.153,-0.565 0.182,-0.602 0.225,-0.63C0.268,-0.658 0.318,-0.672 0.374,-0.672Z" style="fill:white;fill-rule:nonzero;"/>
        </g>
    </g>
    <g transform="matrix(1,0,0,1,-159.065,-707.934)">
        <g transform="matrix(8.33333,0,0,8.33333,182.61,731.627)">
            <path d="M0.904,-0.702C0.913,-0.702 0.921,-0.699 0.927,-0.694C0.933,-0.689 0.936,-0.681 0.936,-0.672L0.934,-0.659L0.713,-0.019C0.711,-0.013 0.708,-0.008 0.703,-0.005C0.698,-0.002 0.692,-0 0.686,-0C0.671,-0 0.661,-0.006 0.656,-0.019L0.483,-0.446L0.31,-0.019C0.304,-0.006 0.294,-0 0.28,-0C0.274,-0 0.269,-0.002 0.264,-0.005C0.259,-0.008 0.255,-0.013 0.254,-0.019L0.033,-0.659C0.031,-0.663 0.03,-0.667 0.03,-0.671C0.03,-0.68 0.034,-0.688 0.041,-0.694C0.048,-0.699 0.055,-0.702 0.063,-0.702C0.07,-0.702 0.076,-0.7 0.081,-0.697C0.086,-0.694 0.09,-0.689 0.092,-0.683L0.288,-0.111L0.456,-0.53C0.462,-0.543 0.471,-0.55 0.484,-0.549C0.491,-0.55 0.497,-0.548 0.501,-0.545C0.506,-0.541 0.51,-0.536 0.513,-0.53L0.68,-0.111L0.874,-0.683C0.879,-0.696 0.889,-0.702 0.904,-0.702Z" style="fill:white;fill-rule:nonzero;"/>
        </g>
        <g transform="matrix(8.33333,0,0,8.33333,190.535,731.627)">
            <path d="M0.511,-0.285C0.511,-0.277 0.508,-0.27 0.502,-0.265C0.496,-0.259 0.489,-0.256 0.481,-0.256L0.103,-0.256C0.103,-0.216 0.111,-0.18 0.128,-0.149C0.144,-0.117 0.167,-0.092 0.198,-0.074C0.228,-0.055 0.264,-0.046 0.305,-0.046C0.337,-0.046 0.366,-0.053 0.391,-0.066C0.416,-0.079 0.437,-0.096 0.452,-0.117C0.459,-0.123 0.466,-0.126 0.473,-0.126C0.48,-0.126 0.486,-0.123 0.491,-0.118C0.496,-0.113 0.499,-0.107 0.499,-0.1C0.499,-0.093 0.496,-0.086 0.489,-0.079C0.468,-0.053 0.441,-0.032 0.408,-0.015C0.376,0.002 0.342,0.01 0.306,0.01C0.255,0.01 0.209,-0.001 0.17,-0.023C0.131,-0.045 0.1,-0.076 0.078,-0.116C0.056,-0.155 0.045,-0.201 0.045,-0.253C0.045,-0.308 0.056,-0.356 0.078,-0.397C0.099,-0.438 0.128,-0.469 0.164,-0.491C0.2,-0.512 0.238,-0.523 0.279,-0.523C0.319,-0.523 0.357,-0.514 0.392,-0.495C0.427,-0.476 0.455,-0.449 0.477,-0.413C0.499,-0.377 0.51,-0.334 0.511,-0.285ZM0.279,-0.465C0.24,-0.465 0.204,-0.452 0.172,-0.425C0.139,-0.398 0.117,-0.36 0.108,-0.31L0.449,-0.31L0.449,-0.318C0.446,-0.348 0.436,-0.374 0.419,-0.397C0.402,-0.419 0.382,-0.436 0.357,-0.448C0.332,-0.459 0.306,-0.465 0.279,-0.465Z" style="fill:white;fill-rule:nonzero;"/>
        </g>
        <g transform="matrix(8.33333,0,0,8.33333,197.444,731.627)">
            <path d="M0.704,-0.7C0.712,-0.7 0.719,-0.697 0.725,-0.692C0.73,-0.686 0.733,-0.679 0.733,-0.67L0.733,-0.03C0.733,-0.021 0.73,-0.014 0.724,-0.009C0.718,-0.003 0.711,-0 0.702,-0C0.693,-0 0.685,-0.003 0.679,-0.009C0.673,-0.014 0.67,-0.021 0.67,-0.03L0.67,-0.58L0.435,-0.224C0.428,-0.215 0.421,-0.211 0.412,-0.212L0.41,-0.212C0.402,-0.212 0.395,-0.216 0.388,-0.224L0.153,-0.582L0.153,-0.03C0.153,-0.021 0.15,-0.014 0.145,-0.009C0.139,-0.003 0.132,-0 0.123,-0C0.114,-0 0.107,-0.003 0.102,-0.009C0.097,-0.014 0.094,-0.021 0.094,-0.03L0.094,-0.67C0.094,-0.678 0.097,-0.685 0.102,-0.691C0.108,-0.697 0.115,-0.7 0.124,-0.7C0.129,-0.7 0.134,-0.699 0.139,-0.697C0.144,-0.694 0.148,-0.691 0.151,-0.687L0.413,-0.294L0.677,-0.687C0.684,-0.697 0.693,-0.701 0.704,-0.7Z" style="fill:white;fill-rule:nonzero;"/>
        </g>
        <g transform="matrix(8.33333,0,0,8.33333,204.335,731.627)">
            <path d="M0.494,-0.511C0.503,-0.511 0.51,-0.508 0.516,-0.502C0.521,-0.496 0.524,-0.489 0.524,-0.48L0.524,-0.03C0.524,-0.021 0.521,-0.014 0.516,-0.009C0.51,-0.003 0.503,-0 0.494,-0C0.485,-0 0.478,-0.003 0.472,-0.009C0.467,-0.014 0.464,-0.021 0.464,-0.03L0.464,-0.097C0.447,-0.067 0.422,-0.042 0.389,-0.021C0.356,-0 0.319,0.01 0.28,0.01C0.235,0.01 0.195,-0.002 0.16,-0.025C0.124,-0.048 0.096,-0.08 0.076,-0.121C0.055,-0.162 0.045,-0.207 0.045,-0.258C0.045,-0.309 0.055,-0.354 0.076,-0.395C0.097,-0.435 0.125,-0.466 0.161,-0.489C0.196,-0.512 0.236,-0.523 0.279,-0.523C0.319,-0.523 0.356,-0.513 0.389,-0.494C0.422,-0.475 0.447,-0.449 0.464,-0.418L0.464,-0.48C0.464,-0.489 0.467,-0.496 0.472,-0.502C0.478,-0.508 0.485,-0.511 0.494,-0.511ZM0.286,-0.046C0.321,-0.046 0.352,-0.055 0.38,-0.074C0.407,-0.092 0.429,-0.117 0.445,-0.15C0.46,-0.182 0.468,-0.218 0.468,-0.258C0.468,-0.297 0.46,-0.332 0.445,-0.364C0.429,-0.396 0.407,-0.421 0.38,-0.44C0.352,-0.458 0.321,-0.467 0.286,-0.467C0.251,-0.467 0.22,-0.458 0.193,-0.44C0.165,-0.422 0.143,-0.397 0.128,-0.366C0.112,-0.334 0.104,-0.298 0.104,-0.258C0.104,-0.218 0.112,-0.182 0.127,-0.15C0.142,-0.117 0.164,-0.092 0.192,-0.074C0.219,-0.055 0.251,-0.046 0.286,-0.046Z" style="fill:white;fill-rule:nonzero;"/>
        </g>
        <g transform="matrix(8.33333,0,0,8.33333,209.352,731.627)">
            <path d="M0.484,-0.053C0.49,-0.046 0.493,-0.039 0.493,-0.03C0.493,-0.021 0.49,-0.014 0.483,-0.009C0.475,-0.003 0.469,-0 0.463,-0C0.454,-0 0.447,-0.004 0.441,-0.011L0.22,-0.245L0.145,-0.181L0.145,-0.03C0.145,-0.021 0.142,-0.014 0.137,-0.009C0.131,-0.003 0.124,-0 0.115,-0C0.106,-0 0.099,-0.003 0.094,-0.009C0.088,-0.014 0.085,-0.021 0.085,-0.03L0.085,-0.71C0.085,-0.719 0.088,-0.726 0.094,-0.732C0.099,-0.737 0.106,-0.74 0.115,-0.74C0.124,-0.74 0.131,-0.737 0.137,-0.732C0.142,-0.726 0.145,-0.719 0.145,-0.71L0.145,-0.254L0.434,-0.503C0.44,-0.51 0.447,-0.513 0.455,-0.513C0.462,-0.513 0.469,-0.51 0.475,-0.503C0.481,-0.497 0.484,-0.49 0.484,-0.483C0.484,-0.475 0.48,-0.467 0.473,-0.46L0.267,-0.285L0.484,-0.053Z" style="fill:white;fill-rule:nonzero;"/>
        </g>
        <g transform="matrix(8.33333,0,0,8.33333,213.627,731.627)">
            <path d="M0.511,-0.285C0.511,-0.277 0.508,-0.27 0.502,-0.265C0.496,-0.259 0.489,-0.256 0.481,-0.256L0.103,-0.256C0.103,-0.216 0.111,-0.18 0.128,-0.149C0.144,-0.117 0.167,-0.092 0.198,-0.074C0.228,-0.055 0.264,-0.046 0.305,-0.046C0.337,-0.046 0.366,-0.053 0.391,-0.066C0.416,-0.079 0.437,-0.096 0.452,-0.117C0.459,-0.123 0.466,-0.126 0.473,-0.126C0.48,-0.126 0.486,-0.123 0.491,-0.118C0.496,-0.113 0.499,-0.107 0.499,-0.1C0.499,-0.093 0.496,-0.086 0.489,-0.079C0.468,-0.053 0.441,-0.032 0.408,-0.015C0.376,0.002 0.342,0.01 0.306,0.01C0.255,0.01 0.209,-0.001 0.17,-0.023C0.131,-0.045 0.1,-0.076 0.078,-0.116C0.056,-0.155 0.045,-0.201 0.045,-0.253C0.045,-0.308 0.056,-0.356 0.078,-0.397C0.099,-0.438 0.128,-0.469 0.164,-0.491C0.2,-0.512 0.238,-0.523 0.279,-0.523C0.319,-0.523 0.357,-0.514 0.392,-0.495C0.427,-0.476 0.455,-0.449 0.477,-0.413C0.499,-0.377 0.51,-0.334 0.511,-0.285ZM0.279,-0.465C0.24,-0.465 0.204,-0.452 0.172,-0.425C0.139,-0.398 0.117,-0.36 0.108,-0.31L0.449,-0.31L0.449,-0.318C0.446,-0.348 0.436,-0.374 0.419,-0.397C0.402,-0.419 0.382,-0.436 0.357,-0.448C0.332,-0.459 0.306,-0.465 0.279,-0.465Z" style="fill:white;fill-rule:nonzero;"/>
        </g>
        <g transform="matrix(8.33333,0,0,8.33333,220.535,731.627)">
            <path d="M0.481,-0.059C0.49,-0.059 0.497,-0.056 0.502,-0.051C0.508,-0.046 0.511,-0.039 0.511,-0.03C0.511,-0.021 0.508,-0.014 0.502,-0.009C0.497,-0.003 0.49,-0 0.481,-0L0.124,-0C0.115,-0 0.108,-0.003 0.102,-0.009C0.097,-0.014 0.094,-0.021 0.094,-0.03L0.094,-0.67C0.094,-0.679 0.097,-0.686 0.103,-0.692C0.109,-0.697 0.117,-0.7 0.126,-0.7C0.135,-0.7 0.142,-0.697 0.148,-0.692C0.154,-0.686 0.157,-0.679 0.157,-0.67L0.157,-0.059L0.481,-0.059Z" style="fill:white;fill-rule:nonzero;"/>
        </g>
        <g transform="matrix(8.33333,0,0,8.33333,224.969,731.627)">
            <path d="M0.551,-0.256C0.551,-0.206 0.54,-0.161 0.518,-0.12C0.496,-0.079 0.466,-0.048 0.427,-0.025C0.388,-0.002 0.345,0.01 0.298,0.01C0.251,0.01 0.208,-0.002 0.169,-0.025C0.13,-0.048 0.1,-0.079 0.078,-0.12C0.056,-0.161 0.045,-0.206 0.045,-0.256C0.045,-0.306 0.056,-0.351 0.078,-0.392C0.1,-0.433 0.13,-0.465 0.169,-0.488C0.208,-0.511 0.251,-0.523 0.298,-0.523C0.345,-0.523 0.388,-0.511 0.427,-0.488C0.466,-0.465 0.496,-0.433 0.518,-0.392C0.54,-0.351 0.551,-0.306 0.551,-0.256ZM0.491,-0.256C0.491,-0.296 0.483,-0.332 0.466,-0.364C0.449,-0.396 0.426,-0.421 0.397,-0.44C0.367,-0.458 0.334,-0.467 0.298,-0.467C0.262,-0.467 0.229,-0.458 0.2,-0.44C0.171,-0.421 0.148,-0.396 0.131,-0.364C0.114,-0.332 0.105,-0.296 0.105,-0.256C0.105,-0.217 0.114,-0.181 0.131,-0.149C0.148,-0.117 0.171,-0.092 0.2,-0.074C0.229,-0.055 0.262,-0.046 0.298,-0.046C0.334,-0.046 0.367,-0.055 0.397,-0.073C0.426,-0.091 0.449,-0.116 0.466,-0.148C0.483,-0.18 0.491,-0.216 0.491,-0.256Z" style="fill:white;fill-rule:nonzero;"/>
        </g>
        <g transform="matrix(8.33333,0,0,8.33333,229.927,731.627)">
            <path d="M0.3,-0.523C0.331,-0.523 0.361,-0.52 0.388,-0.513C0.414,-0.505 0.436,-0.496 0.453,-0.484C0.469,-0.472 0.477,-0.459 0.477,-0.445C0.477,-0.438 0.474,-0.431 0.469,-0.425C0.465,-0.419 0.458,-0.416 0.451,-0.416C0.444,-0.416 0.439,-0.417 0.435,-0.42C0.43,-0.423 0.425,-0.427 0.42,-0.432C0.411,-0.441 0.403,-0.447 0.395,-0.451C0.385,-0.456 0.372,-0.46 0.356,-0.463C0.339,-0.466 0.322,-0.467 0.303,-0.467C0.266,-0.467 0.233,-0.458 0.203,-0.439C0.172,-0.42 0.148,-0.395 0.131,-0.363C0.114,-0.331 0.105,-0.296 0.105,-0.257C0.105,-0.217 0.113,-0.181 0.13,-0.149C0.147,-0.117 0.17,-0.092 0.2,-0.074C0.229,-0.055 0.263,-0.046 0.301,-0.046C0.325,-0.046 0.344,-0.048 0.359,-0.052C0.373,-0.056 0.387,-0.062 0.401,-0.069C0.406,-0.072 0.414,-0.078 0.425,-0.087C0.43,-0.092 0.435,-0.095 0.439,-0.098C0.443,-0.1 0.447,-0.101 0.452,-0.101C0.46,-0.101 0.466,-0.099 0.471,-0.094C0.476,-0.089 0.478,-0.082 0.478,-0.074C0.478,-0.063 0.47,-0.051 0.454,-0.038C0.438,-0.025 0.416,-0.013 0.388,-0.004C0.36,0.005 0.329,0.01 0.295,0.01C0.246,0.01 0.203,-0.002 0.165,-0.025C0.127,-0.048 0.098,-0.079 0.077,-0.12C0.056,-0.161 0.045,-0.206 0.045,-0.257C0.045,-0.306 0.056,-0.35 0.077,-0.391C0.098,-0.431 0.128,-0.463 0.167,-0.487C0.206,-0.511 0.25,-0.523 0.3,-0.523Z" style="fill:white;fill-rule:nonzero;"/>
        </g>
        <g transform="matrix(8.33333,0,0,8.33333,234.21,731.627)">
            <path d="M0.494,-0.511C0.503,-0.511 0.51,-0.508 0.516,-0.502C0.521,-0.496 0.524,-0.489 0.524,-0.48L0.524,-0.03C0.524,-0.021 0.521,-0.014 0.516,-0.009C0.51,-0.003 0.503,-0 0.494,-0C0.485,-0 0.478,-0.003 0.472,-0.009C0.467,-0.014 0.464,-0.021 0.464,-0.03L0.464,-0.097C0.447,-0.067 0.422,-0.042 0.389,-0.021C0.356,-0 0.319,0.01 0.28,0.01C0.235,0.01 0.195,-0.002 0.16,-0.025C0.124,-0.048 0.096,-0.08 0.076,-0.121C0.055,-0.162 0.045,-0.207 0.045,-0.258C0.045,-0.309 0.055,-0.354 0.076,-0.395C0.097,-0.435 0.125,-0.466 0.161,-0.489C0.196,-0.512 0.236,-0.523 0.279,-0.523C0.319,-0.523 0.356,-0.513 0.389,-0.494C0.422,-0.475 0.447,-0.449 0.464,-0.418L0.464,-0.48C0.464,-0.489 0.467,-0.496 0.472,-0.502C0.478,-0.508 0.485,-0.511 0.494,-0.511ZM0.286,-0.046C0.321,-0.046 0.352,-0.055 0.38,-0.074C0.407,-0.092 0.429,-0.117 0.445,-0.15C0.46,-0.182 0.468,-0.218 0.468,-0.258C0.468,-0.297 0.46,-0.332 0.445,-0.364C0.429,-0.396 0.407,-0.421 0.38,-0.44C0.352,-0.458 0.321,-0.467 0.286,-0.467C0.251,-0.467 0.22,-0.458 0.193,-0.44C0.165,-0.422 0.143,-0.397 0.128,-0.366C0.112,-0.334 0.104,-0.298 0.104,-0.258C0.104,-0.218 0.112,-0.182 0.127,-0.15C0.142,-0.117 0.164,-0.092 0.192,-0.074C0.219,-0.055 0.251,-0.046 0.286,-0.046Z" style="fill:white;fill-rule:nonzero;"/>
        </g>
        <g transform="matrix(8.33333,0,0,8.33333,239.227,731.627)">
            <path d="M0.145,-0.03C0.145,-0.021 0.142,-0.014 0.137,-0.009C0.131,-0.003 0.124,-0 0.115,-0C0.106,-0 0.099,-0.003 0.094,-0.009C0.088,-0.014 0.085,-0.021 0.085,-0.03L0.085,-0.71C0.085,-0.719 0.088,-0.726 0.094,-0.732C0.099,-0.737 0.106,-0.74 0.115,-0.74C0.124,-0.74 0.131,-0.737 0.137,-0.732C0.142,-0.726 0.145,-0.719 0.145,-0.71L0.145,-0.03Z" style="fill:white;fill-rule:nonzero;"/>
        </g>
        <g transform="matrix(8.33333,0,0,8.33333,241.144,731.627)">
            <path d="M0.156,-0.003C0.156,0.016 0.151,0.034 0.141,0.053C0.132,0.072 0.12,0.088 0.105,0.1C0.09,0.113 0.076,0.119 0.062,0.119C0.055,0.119 0.049,0.117 0.043,0.113C0.039,0.11 0.036,0.104 0.036,0.097C0.036,0.09 0.038,0.086 0.041,0.083C0.044,0.08 0.05,0.078 0.057,0.076C0.064,0.074 0.069,0.072 0.072,0.07C0.081,0.065 0.089,0.058 0.094,0.049C0.099,0.04 0.101,0.031 0.101,0.02C0.101,0.013 0.099,0.007 0.095,0.002C0.091,-0.003 0.086,-0.005 0.079,-0.005C0.068,-0.005 0.059,-0.002 0.052,0.004C0.044,-0.003 0.04,-0.011 0.04,-0.02C0.04,-0.032 0.046,-0.043 0.058,-0.051C0.07,-0.061 0.083,-0.065 0.097,-0.065C0.114,-0.065 0.129,-0.059 0.14,-0.049C0.151,-0.038 0.156,-0.022 0.156,-0.003Z" style="fill:white;fill-rule:nonzero;"/>
        </g>
        <g transform="matrix(8.33333,0,0,8.33333,245.035,731.627)">
            <path d="M0.379,-0.7C0.443,-0.7 0.497,-0.684 0.541,-0.653C0.584,-0.621 0.617,-0.579 0.639,-0.526C0.66,-0.472 0.671,-0.414 0.671,-0.35C0.671,-0.284 0.66,-0.225 0.639,-0.172C0.617,-0.119 0.584,-0.078 0.541,-0.047C0.497,-0.016 0.443,-0 0.379,-0L0.124,-0C0.115,-0 0.108,-0.003 0.102,-0.009C0.097,-0.014 0.094,-0.021 0.094,-0.03L0.094,-0.67C0.094,-0.679 0.097,-0.686 0.102,-0.692C0.108,-0.697 0.115,-0.7 0.124,-0.7L0.379,-0.7ZM0.369,-0.059C0.449,-0.059 0.509,-0.086 0.548,-0.14C0.587,-0.193 0.607,-0.263 0.607,-0.35C0.607,-0.404 0.599,-0.453 0.582,-0.497C0.565,-0.54 0.539,-0.575 0.503,-0.602C0.468,-0.628 0.423,-0.641 0.369,-0.641L0.157,-0.641L0.157,-0.059L0.369,-0.059Z" style="fill:white;fill-rule:nonzero;"/>
        </g>
        <g transform="matrix(8.33333,0,0,8.33333,251.027,731.627)">
            <path d="M0.137,-0.03C0.137,-0.021 0.134,-0.014 0.129,-0.009C0.123,-0.003 0.116,-0 0.107,-0C0.098,-0 0.091,-0.003 0.086,-0.009C0.08,-0.014 0.077,-0.021 0.077,-0.03L0.077,-0.49C0.077,-0.499 0.08,-0.506 0.086,-0.511C0.091,-0.517 0.098,-0.52 0.107,-0.52C0.116,-0.52 0.123,-0.517 0.129,-0.511C0.134,-0.506 0.137,-0.499 0.137,-0.49L0.137,-0.03ZM0.107,-0.587C0.094,-0.587 0.083,-0.59 0.076,-0.597C0.069,-0.603 0.065,-0.612 0.065,-0.624L0.065,-0.634C0.065,-0.646 0.069,-0.655 0.077,-0.662C0.084,-0.668 0.095,-0.671 0.108,-0.671C0.135,-0.671 0.148,-0.659 0.148,-0.634L0.148,-0.624C0.148,-0.612 0.145,-0.603 0.138,-0.597C0.131,-0.59 0.12,-0.587 0.107,-0.587Z" style="fill:white;fill-rule:nonzero;"/>
        </g>
        <g transform="matrix(8.33333,0,0,8.33333,252.81,731.627)">
            <path d="M0.511,-0.511C0.52,-0.511 0.527,-0.508 0.533,-0.502C0.538,-0.497 0.541,-0.489 0.541,-0.48L0.541,-0.047C0.541,0.005 0.53,0.049 0.508,0.086C0.487,0.123 0.457,0.152 0.42,0.171C0.382,0.19 0.339,0.2 0.29,0.2C0.267,0.2 0.242,0.197 0.217,0.191C0.191,0.185 0.169,0.177 0.151,0.168C0.132,0.159 0.122,0.149 0.119,0.139C0.114,0.134 0.112,0.129 0.112,0.123C0.112,0.116 0.115,0.111 0.121,0.107C0.124,0.105 0.127,0.104 0.131,0.104C0.135,0.104 0.143,0.106 0.154,0.111L0.175,0.12C0.216,0.136 0.255,0.144 0.291,0.144C0.35,0.144 0.397,0.127 0.431,0.093C0.464,0.06 0.481,0.014 0.481,-0.043L0.481,-0.105C0.464,-0.069 0.438,-0.041 0.402,-0.021C0.366,-0 0.328,0.01 0.289,0.01C0.243,0.01 0.202,-0.002 0.165,-0.025C0.128,-0.048 0.098,-0.079 0.077,-0.12C0.056,-0.161 0.045,-0.206 0.045,-0.257C0.045,-0.307 0.056,-0.352 0.077,-0.393C0.098,-0.434 0.128,-0.466 0.165,-0.489C0.202,-0.511 0.243,-0.523 0.288,-0.523C0.33,-0.523 0.369,-0.513 0.404,-0.492C0.439,-0.47 0.464,-0.445 0.481,-0.416L0.481,-0.48C0.481,-0.489 0.484,-0.496 0.49,-0.502C0.495,-0.508 0.502,-0.511 0.511,-0.511ZM0.294,-0.046C0.331,-0.046 0.364,-0.055 0.393,-0.073C0.422,-0.09 0.444,-0.115 0.461,-0.148C0.477,-0.18 0.485,-0.216 0.485,-0.257C0.485,-0.298 0.477,-0.334 0.461,-0.366C0.444,-0.398 0.422,-0.423 0.393,-0.441C0.364,-0.458 0.331,-0.467 0.294,-0.467C0.258,-0.467 0.226,-0.458 0.197,-0.44C0.168,-0.421 0.145,-0.396 0.129,-0.364C0.112,-0.332 0.104,-0.296 0.104,-0.257C0.104,-0.217 0.112,-0.181 0.129,-0.149C0.145,-0.117 0.168,-0.092 0.197,-0.074C0.226,-0.055 0.258,-0.046 0.294,-0.046Z" style="fill:white;fill-rule:nonzero;"/>
        </g>
        <g transform="matrix(8.33333,0,0,8.33333,257.977,731.627)">
            <path d="M0.137,-0.03C0.137,-0.021 0.134,-0.014 0.129,-0.009C0.123,-0.003 0.116,-0 0.107,-0C0.098,-0 0.091,-0.003 0.086,-0.009C0.08,-0.014 0.077,-0.021 0.077,-0.03L0.077,-0.49C0.077,-0.499 0.08,-0.506 0.086,-0.511C0.091,-0.517 0.098,-0.52 0.107,-0.52C0.116,-0.52 0.123,-0.517 0.129,-0.511C0.134,-0.506 0.137,-0.499 0.137,-0.49L0.137,-0.03ZM0.107,-0.587C0.094,-0.587 0.083,-0.59 0.076,-0.597C0.069,-0.603 0.065,-0.612 0.065,-0.624L0.065,-0.634C0.065,-0.646 0.069,-0.655 0.077,-0.662C0.084,-0.668 0.095,-0.671 0.108,-0.671C0.135,-0.671 0.148,-0.659 0.148,-0.634L0.148,-0.624C0.148,-0.612 0.145,-0.603 0.138,-0.597C0.131,-0.59 0.12,-0.587 0.107,-0.587Z" style="fill:white;fill-rule:nonzero;"/>
        </g>
        <g transform="matrix(8.33333,0,0,8.33333,259.76,731.627)">
            <path d="M0.179,-0.453L0.179,-0.118C0.179,-0.093 0.184,-0.076 0.193,-0.067C0.202,-0.058 0.215,-0.053 0.23,-0.053C0.234,-0.053 0.239,-0.054 0.245,-0.056C0.251,-0.057 0.256,-0.058 0.259,-0.058C0.265,-0.058 0.27,-0.056 0.275,-0.051C0.279,-0.046 0.281,-0.04 0.281,-0.033C0.281,-0.024 0.276,-0.016 0.265,-0.01C0.254,-0.003 0.242,-0 0.227,-0C0.209,-0 0.193,-0.002 0.179,-0.005C0.165,-0.008 0.152,-0.018 0.139,-0.035C0.126,-0.052 0.119,-0.078 0.119,-0.115L0.119,-0.453L0.046,-0.453C0.038,-0.453 0.031,-0.456 0.025,-0.461C0.02,-0.466 0.017,-0.473 0.017,-0.481C0.017,-0.489 0.02,-0.496 0.025,-0.501C0.031,-0.506 0.038,-0.509 0.046,-0.509L0.119,-0.509L0.119,-0.62C0.119,-0.629 0.122,-0.636 0.128,-0.642C0.133,-0.647 0.14,-0.65 0.149,-0.65C0.158,-0.65 0.165,-0.647 0.171,-0.642C0.176,-0.636 0.179,-0.629 0.179,-0.62L0.179,-0.509L0.279,-0.509C0.286,-0.509 0.293,-0.506 0.299,-0.5C0.304,-0.494 0.307,-0.487 0.307,-0.48C0.307,-0.472 0.304,-0.466 0.299,-0.461C0.294,-0.456 0.287,-0.453 0.279,-0.453L0.179,-0.453Z" style="fill:white;fill-rule:nonzero;"/>
        </g>
        <g transform="matrix(8.33333,0,0,8.33333,262.585,731.627)">
            <path d="M0.494,-0.511C0.503,-0.511 0.51,-0.508 0.516,-0.502C0.521,-0.496 0.524,-0.489 0.524,-0.48L0.524,-0.03C0.524,-0.021 0.521,-0.014 0.516,-0.009C0.51,-0.003 0.503,-0 0.494,-0C0.485,-0 0.478,-0.003 0.472,-0.009C0.467,-0.014 0.464,-0.021 0.464,-0.03L0.464,-0.097C0.447,-0.067 0.422,-0.042 0.389,-0.021C0.356,-0 0.319,0.01 0.28,0.01C0.235,0.01 0.195,-0.002 0.16,-0.025C0.124,-0.048 0.096,-0.08 0.076,-0.121C0.055,-0.162 0.045,-0.207 0.045,-0.258C0.045,-0.309 0.055,-0.354 0.076,-0.395C0.097,-0.435 0.125,-0.466 0.161,-0.489C0.196,-0.512 0.236,-0.523 0.279,-0.523C0.319,-0.523 0.356,-0.513 0.389,-0.494C0.422,-0.475 0.447,-0.449 0.464,-0.418L0.464,-0.48C0.464,-0.489 0.467,-0.496 0.472,-0.502C0.478,-0.508 0.485,-0.511 0.494,-0.511ZM0.286,-0.046C0.321,-0.046 0.352,-0.055 0.38,-0.074C0.407,-0.092 0.429,-0.117 0.445,-0.15C0.46,-0.182 0.468,-0.218 0.468,-0.258C0.468,-0.297 0.46,-0.332 0.445,-0.364C0.429,-0.396 0.407,-0.421 0.38,-0.44C0.352,-0.458 0.321,-0.467 0.286,-0.467C0.251,-0.467 0.22,-0.458 0.193,-0.44C0.165,-0.422 0.143,-0.397 0.128,-0.366C0.112,-0.334 0.104,-0.298 0.104,-0.258C0.104,-0.218 0.112,-0.182 0.127,-0.15C0.142,-0.117 0.164,-0.092 0.192,-0.074C0.219,-0.055 0.251,-0.046 0.286,-0.046Z" style="fill:white;fill-rule:nonzero;"/>
        </g>
        <g transform="matrix(8.33333,0,0,8.33333,267.602,731.627)">
            <path d="M0.145,-0.03C0.145,-0.021 0.142,-0.014 0.137,-0.009C0.131,-0.003 0.124,-0 0.115,-0C0.106,-0 0.099,-0.003 0.094,-0.009C0.088,-0.014 0.085,-0.021 0.085,-0.03L0.085,-0.71C0.085,-0.719 0.088,-0.726 0.094,-0.732C0.099,-0.737 0.106,-0.74 0.115,-0.74C0.124,-0.74 0.131,-0.737 0.137,-0.732C0.142,-0.726 0.145,-0.719 0.145,-0.71L0.145,-0.03Z" style="fill:white;fill-rule:nonzero;"/>
        </g>
    </g>
</svg>
