<?xml version="1.0" encoding="UTF-8" standalone="no"?>
<!DOCTYPE svg PUBLIC "-//W3C//DTD SVG 1.1//EN" "http://www.w3.org/Graphics/SVG/1.1/DTD/svg11.dtd">
<svg width="100%" height="100%" viewBox="0 0 1500 318" version="1.1" xmlns="http://www.w3.org/2000/svg" xmlns:xlink="http://www.w3.org/1999/xlink" xml:space="preserve" xmlns:serif="http://www.serif.com/" style="fill-rule:evenodd;clip-rule:evenodd;stroke-linejoin:round;stroke-miterlimit:2;">
    <g transform="matrix(0.399543,0,0,0.399543,79.9441,16.4639)">
        <g transform="matrix(0.432883,0,0,0.432883,951.088,47.8879)">
            <path d="M3335.26,476.767C3324.85,476.767 3316.4,485.217 3316.4,495.621C3316.4,506.025 3324.85,514.475 3335.26,514.475C3345.66,514.475 3354.11,506.025 3354.11,495.621C3354.11,485.217 3345.66,476.767 3335.26,476.767ZM3335.26,511.485C3326.49,511.485 3319.39,504.349 3319.39,495.621C3319.39,486.851 3326.53,479.757 3335.26,479.757C3344.03,479.757 3351.16,486.892 3351.16,495.621C3351.16,504.35 3344.03,511.485 3335.26,511.485ZM3341.4,492.392C3341.4,488.964 3338.96,486.931 3335.38,486.931L3329.36,486.931L3329.36,504.111L3332.31,504.111L3332.31,497.893L3335.53,497.893L3338.64,504.111L3341.83,504.111L3338.4,497.256C3340.24,496.418 3341.4,494.743 3341.4,492.392ZM3335.26,495.222L3332.35,495.222L3332.35,489.523L3335.26,489.523C3337.25,489.523 3338.45,490.519 3338.45,492.353C3338.45,494.226 3337.21,495.222 3335.26,495.222ZM1063.51,285.956L1063.51,240.356L993.594,240.356L993.594,511.644L1063.51,511.644L1063.51,348.976C1063.51,319.519 1082.4,305.049 1111.86,305.049L1150.12,305.049L1150.12,240.357L1117.44,240.357C1091.85,240.356 1069.61,253.709 1063.51,285.956ZM1215.62,133.053C1191.7,133.053 1173.36,151.947 1173.36,175.863C1173.36,199.221 1191.7,218.115 1215.62,218.115C1239.53,218.115 1257.87,199.221 1257.87,175.863C1257.87,151.946 1239.53,133.053 1215.62,133.053ZM1180.74,511.645L1250.49,511.645L1250.49,240.356L1180.74,240.356L1180.74,511.645ZM1582.77,376C1582.77,453.448 1519.99,516.229 1442.54,516.229C1411.29,516.229 1382.95,505.985 1360.23,488.685L1360.23,591.286L1290.47,591.286L1290.47,240.356L1360.23,240.356L1360.23,263.315C1382.95,246.016 1411.29,235.772 1442.54,235.772C1519.99,235.772 1582.77,298.552 1582.77,376ZM1512.57,376C1512.57,333.948 1478.45,299.827 1436.4,299.827C1394.35,299.827 1360.23,333.948 1360.23,376C1360.23,418.053 1394.35,452.173 1436.4,452.173C1478.45,452.173 1512.57,418.093 1512.57,376ZM2795.15,352.204L2754.45,341.043C2727.67,334.067 2717.27,325.856 2717.27,311.706C2717.27,297.914 2731.93,288.268 2752.9,288.268C2772.87,288.268 2788.54,301.342 2788.54,318.083L2788.54,319.637L2852.83,319.637L2852.83,318.083C2852.83,268.855 2812.69,235.771 2752.9,235.771C2693.71,235.771 2650.7,268.815 2650.7,314.375C2650.7,349.811 2674.18,376.517 2715.15,387.598L2754.14,398.241C2783.75,406.452 2794.75,415.541 2794.75,431.844C2794.75,449.024 2778.85,460.583 2755.17,460.583C2730.5,460.583 2713.88,444.957 2713.88,421.759L2713.88,420.204L2645.64,420.204L2645.64,421.759C2645.64,477.404 2690.44,516.307 2754.62,516.307C2816.44,516.307 2861.32,478.321 2861.32,426.024C2861.32,400.354 2849.84,366.793 2795.15,352.204ZM1830.22,240.356L1899.97,240.356L1899.97,511.644L1830.22,511.644L1830.22,488.684C1807.5,505.984 1779.16,516.228 1747.91,516.228C1670.46,516.228 1607.68,453.448 1607.68,375.999C1607.68,298.55 1670.46,235.771 1747.91,235.771C1779.16,235.771 1807.5,246.015 1830.22,263.314L1830.22,240.356ZM1830.22,376C1830.22,333.908 1796.1,299.827 1754.05,299.827C1711.99,299.827 1677.87,333.948 1677.87,376C1677.87,418.053 1711.99,452.173 1754.05,452.173C1796.14,452.173 1830.22,418.093 1830.22,376ZM2151.85,143.815L2221.61,143.815L2221.61,511.684L2151.85,511.684L2151.85,488.724C2129.13,506.024 2100.79,516.268 2069.54,516.268C1992.09,516.268 1929.31,453.488 1929.31,376.039C1929.31,298.59 1992.09,235.811 2069.54,235.811C2100.79,235.811 2129.13,246.055 2151.85,263.354L2151.85,143.815ZM2151.85,376C2151.85,333.948 2117.73,299.827 2075.68,299.827C2033.62,299.827 1999.5,333.948 1999.5,376C1999.5,418.053 2033.58,452.173 2075.68,452.173C2117.73,452.173 2151.85,418.093 2151.85,376ZM2545.47,511.645L2615.22,511.645L2615.22,240.356L2545.47,240.356L2545.47,511.645ZM2580.35,133.053C2556.43,133.053 2538.09,151.947 2538.09,175.863C2538.09,199.221 2556.43,218.115 2580.35,218.115C2604.26,218.115 2622.6,199.221 2622.6,175.863C2622.6,151.946 2604.26,133.053 2580.35,133.053ZM3162.82,376C3162.82,453.448 3100.04,516.229 3022.59,516.229C2945.15,516.229 2882.37,453.449 2882.37,376C2882.37,298.551 2945.14,235.772 3022.59,235.772C3100.04,235.772 3162.82,298.552 3162.82,376ZM3098.77,376C3098.77,333.948 3064.65,299.827 3022.59,299.827C2980.54,299.827 2946.42,333.948 2946.42,376C2946.42,418.053 2980.5,452.173 3022.59,452.173C3064.65,452.173 3098.77,418.093 3098.77,376ZM1027.83,143.815L760.212,143.815L760.212,206.037L859.265,206.037L859.265,511.644L928.781,511.644L928.781,206.037L1027.83,206.037L1027.83,143.815ZM2381.01,437.345L2318.94,240.357L2245.68,240.357L2338.75,511.645L2422.7,511.645L2516.33,240.357L2443.07,240.357L2381.01,437.345ZM3265.02,285.956L3265.02,240.356L3195.11,240.356L3195.11,511.644L3265.02,511.644L3265.02,348.976C3265.02,319.519 3283.92,305.049 3313.37,305.049L3351.64,305.049L3351.64,240.357L3318.95,240.357C3293.36,240.356 3271.16,253.709 3265.02,285.956Z" style="fill-rule:nonzero;"/>
        </g>
        <g transform="matrix(0.432883,0,0,0.432883,951.088,47.8879)">
            <circle cx="356.749" cy="356.748" r="356.748" style="fill:rgb(52,224,161);"/>
        </g>
        <g transform="matrix(0.432883,0,0,0.432883,951.088,47.8879)">
            <path d="M577.095,287.152L620.144,240.316L524.679,240.316C476.887,207.67 419.169,188.657 356.748,188.657C294.406,188.657 236.849,207.711 189.136,240.316L93.432,240.316L136.481,287.152C110.094,311.227 93.552,345.906 93.552,384.411C93.552,457.076 152.466,515.989 225.131,515.989C259.65,515.989 291.099,502.676 314.577,480.912L356.749,526.831L398.921,480.952C422.399,502.716 453.808,515.989 488.327,515.989C560.992,515.989 619.985,457.076 619.985,384.411C620.024,345.866 603.483,311.188 577.095,287.152ZM225.17,473.458C175.982,473.458 136.123,433.599 136.123,384.411C136.123,335.223 175.983,295.363 225.17,295.363C274.357,295.363 314.217,335.223 314.217,384.411C314.217,433.599 274.357,473.458 225.17,473.458ZM356.788,381.82C356.788,323.225 314.178,272.922 257.935,251.437C288.348,238.721 321.711,231.666 356.748,231.666C391.785,231.666 425.187,238.721 455.601,251.437C399.399,272.962 356.788,323.226 356.788,381.82ZM488.367,473.458C439.179,473.458 399.319,433.599 399.319,384.411C399.319,335.223 439.179,295.363 488.367,295.363C537.555,295.363 577.414,335.223 577.414,384.411C577.414,433.599 537.554,473.458 488.367,473.458ZM488.367,337.694C462.577,337.694 441.69,358.581 441.69,384.371C441.69,410.16 462.577,431.047 488.367,431.047C514.156,431.047 535.043,410.16 535.043,384.371C535.042,358.621 514.156,337.694 488.367,337.694ZM271.846,384.411C271.846,410.2 250.959,431.087 225.17,431.087C199.381,431.087 178.494,410.2 178.494,384.411C178.494,358.621 199.381,337.734 225.17,337.734C250.959,337.694 271.846,358.621 271.846,384.411Z" style="fill-rule:nonzero;"/>
        </g>
    </g>
</svg>
