<?xml version="1.0" encoding="UTF-8" standalone="no"?>
<!DOCTYPE svg PUBLIC "-//W3C//DTD SVG 1.1//EN" "http://www.w3.org/Graphics/SVG/1.1/DTD/svg11.dtd">
<svg width="100%" height="100%" viewBox="0 0 1024 676" version="1.1" xmlns="http://www.w3.org/2000/svg" xmlns:xlink="http://www.w3.org/1999/xlink" xml:space="preserve" xmlns:serif="http://www.serif.com/" style="fill-rule:evenodd;clip-rule:evenodd;stroke-linecap:round;stroke-linejoin:round;stroke-miterlimit:1.5;">
    <g id="Layer1">
        <g id="Orange-Dots" serif:id="Orange Dots">
            <g transform="matrix(1,0,0,1,79.2825,-56.9632)">
                <g transform="matrix(0.640568,0,0,0.640568,64.6128,47.4892)">
                    <path d="M230.437,137.687C252.271,137.687 269.997,155.4 269.997,177.217C269.997,199.034 252.271,216.746 230.437,216.746C208.604,216.746 190.878,199.034 190.878,177.217C190.878,155.4 208.604,137.687 230.437,137.687ZM230.437,157.452C241.354,157.452 250.217,166.308 250.217,177.217C250.217,188.125 241.354,196.982 230.437,196.982C219.52,196.982 210.657,188.125 210.657,177.217C210.657,166.308 219.52,157.452 230.437,157.452Z" style="stroke:black;stroke-width:1.5px;"/>
                </g>
                <g transform="matrix(1.07843,0,0,1.07843,21.1055,-78.1)">
                    <circle cx="176.887" cy="221.41" r="11.326" style="fill:rgb(254,165,0);stroke:black;stroke-width:0.89px;"/>
                </g>
            </g>
            <g transform="matrix(1,0,0,1,0.335085,-2)">
                <g transform="matrix(0.640568,0,0,0.640568,64.6128,47.4892)">
                    <path d="M230.437,137.687C252.271,137.687 269.997,155.4 269.997,177.217C269.997,199.034 252.271,216.746 230.437,216.746C208.604,216.746 190.878,199.034 190.878,177.217C190.878,155.4 208.604,137.687 230.437,137.687ZM230.437,157.452C241.354,157.452 250.217,166.308 250.217,177.217C250.217,188.125 241.354,196.982 230.437,196.982C219.52,196.982 210.657,188.125 210.657,177.217C210.657,166.308 219.52,157.452 230.437,157.452Z" style="stroke:black;stroke-width:1.5px;"/>
                </g>
                <g transform="matrix(1.07843,0,0,1.07843,21.1055,-78.1)">
                    <circle cx="176.887" cy="221.41" r="11.326" style="fill:rgb(254,165,0);stroke:black;stroke-width:0.89px;"/>
                </g>
            </g>
            <g transform="matrix(1,0,0,1,145.682,240.842)">
                <g transform="matrix(0.640568,0,0,0.640568,64.6128,47.4892)">
                    <path d="M230.437,137.687C252.271,137.687 269.997,155.4 269.997,177.217C269.997,199.034 252.271,216.746 230.437,216.746C208.604,216.746 190.878,199.034 190.878,177.217C190.878,155.4 208.604,137.687 230.437,137.687ZM230.437,157.452C241.354,157.452 250.217,166.308 250.217,177.217C250.217,188.125 241.354,196.982 230.437,196.982C219.52,196.982 210.657,188.125 210.657,177.217C210.657,166.308 219.52,157.452 230.437,157.452Z" style="stroke:black;stroke-width:1.5px;"/>
                </g>
                <g transform="matrix(1.07843,0,0,1.07843,21.1055,-78.1)">
                    <circle cx="176.887" cy="221.41" r="11.326" style="fill:rgb(254,165,0);stroke:black;stroke-width:0.89px;"/>
                </g>
            </g>
            <g transform="matrix(1,0,0,1,469.248,239.954)">
                <g transform="matrix(0.640568,0,0,0.640568,64.6128,47.4892)">
                    <path d="M230.437,137.687C252.271,137.687 269.997,155.4 269.997,177.217C269.997,199.034 252.271,216.746 230.437,216.746C208.604,216.746 190.878,199.034 190.878,177.217C190.878,155.4 208.604,137.687 230.437,137.687ZM230.437,157.452C241.354,157.452 250.217,166.308 250.217,177.217C250.217,188.125 241.354,196.982 230.437,196.982C219.52,196.982 210.657,188.125 210.657,177.217C210.657,166.308 219.52,157.452 230.437,157.452Z" style="stroke:black;stroke-width:1.5px;"/>
                </g>
                <g transform="matrix(1.07843,0,0,1.07843,21.1055,-78.1)">
                    <circle cx="176.887" cy="221.41" r="11.326" style="fill:rgb(254,165,0);stroke:black;stroke-width:0.89px;"/>
                </g>
            </g>
            <g transform="matrix(1,0,0,1,611.601,169.89)">
                <g transform="matrix(0.640568,0,0,0.640568,64.6128,47.4892)">
                    <path d="M230.437,137.687C252.271,137.687 269.997,155.4 269.997,177.217C269.997,199.034 252.271,216.746 230.437,216.746C208.604,216.746 190.878,199.034 190.878,177.217C190.878,155.4 208.604,137.687 230.437,137.687ZM230.437,157.452C241.354,157.452 250.217,166.308 250.217,177.217C250.217,188.125 241.354,196.982 230.437,196.982C219.52,196.982 210.657,188.125 210.657,177.217C210.657,166.308 219.52,157.452 230.437,157.452Z" style="stroke:black;stroke-width:1.5px;"/>
                </g>
                <g transform="matrix(1.07843,0,0,1.07843,21.1055,-78.1)">
                    <circle cx="176.887" cy="221.41" r="11.326" style="fill:rgb(254,165,0);stroke:black;stroke-width:0.89px;"/>
                </g>
            </g>
            <g transform="matrix(1,0,0,1,612.489,-0.664915)">
                <g transform="matrix(0.640568,0,0,0.640568,64.6128,47.4892)">
                    <path d="M230.437,137.687C252.271,137.687 269.997,155.4 269.997,177.217C269.997,199.034 252.271,216.746 230.437,216.746C208.604,216.746 190.878,199.034 190.878,177.217C190.878,155.4 208.604,137.687 230.437,137.687ZM230.437,157.452C241.354,157.452 250.217,166.308 250.217,177.217C250.217,188.125 241.354,196.982 230.437,196.982C219.52,196.982 210.657,188.125 210.657,177.217C210.657,166.308 219.52,157.452 230.437,157.452Z" style="stroke:black;stroke-width:1.5px;"/>
                </g>
                <g transform="matrix(1.07843,0,0,1.07843,21.1055,-78.1)">
                    <circle cx="176.887" cy="221.41" r="11.326" style="fill:rgb(254,165,0);stroke:black;stroke-width:0.89px;"/>
                </g>
            </g>
            <g transform="matrix(1,0,0,1,461.807,-43.4152)">
                <g transform="matrix(0.640568,0,0,0.640568,64.6128,47.4892)">
                    <path d="M230.437,137.687C252.271,137.687 269.997,155.4 269.997,177.217C269.997,199.034 252.271,216.746 230.437,216.746C208.604,216.746 190.878,199.034 190.878,177.217C190.878,155.4 208.604,137.687 230.437,137.687ZM230.437,157.452C241.354,157.452 250.217,166.308 250.217,177.217C250.217,188.125 241.354,196.982 230.437,196.982C219.52,196.982 210.657,188.125 210.657,177.217C210.657,166.308 219.52,157.452 230.437,157.452Z" style="stroke:black;stroke-width:1.5px;"/>
                </g>
                <g transform="matrix(1.07843,0,0,1.07843,21.1055,-78.1)">
                    <circle cx="176.887" cy="221.41" r="11.326" style="fill:rgb(254,165,0);stroke:black;stroke-width:0.89px;"/>
                </g>
            </g>
        </g>
        <g id="Teal-Dots" serif:id="Teal Dots">
            <g transform="matrix(1,0,0,1,531.095,-56.7398)">
                <g transform="matrix(0.640568,0,0,0.640568,64.6128,47.4892)">
                    <path d="M230.437,137.687C252.271,137.687 269.997,155.4 269.997,177.217C269.997,199.034 252.271,216.746 230.437,216.746C208.604,216.746 190.878,199.034 190.878,177.217C190.878,155.4 208.604,137.687 230.437,137.687ZM230.437,157.452C241.354,157.452 250.217,166.308 250.217,177.217C250.217,188.125 241.354,196.982 230.437,196.982C219.52,196.982 210.657,188.125 210.657,177.217C210.657,166.308 219.52,157.452 230.437,157.452Z" style="stroke:black;stroke-width:1.5px;"/>
                </g>
                <g transform="matrix(1.07843,0,0,1.07843,21.1055,-78.1)">
                    <circle cx="176.887" cy="221.41" r="11.326" style="fill:rgb(0,217,243);stroke:black;stroke-width:0.89px;"/>
                </g>
            </g>
            <g transform="matrix(1,0,0,1,635.915,64.0696)">
                <g transform="matrix(0.640568,0,0,0.640568,64.6128,47.4892)">
                    <path d="M230.437,137.687C252.271,137.687 269.997,155.4 269.997,177.217C269.997,199.034 252.271,216.746 230.437,216.746C208.604,216.746 190.878,199.034 190.878,177.217C190.878,155.4 208.604,137.687 230.437,137.687ZM230.437,157.452C241.354,157.452 250.217,166.308 250.217,177.217C250.217,188.125 241.354,196.982 230.437,196.982C219.52,196.982 210.657,188.125 210.657,177.217C210.657,166.308 219.52,157.452 230.437,157.452Z" style="stroke:black;stroke-width:1.5px;"/>
                </g>
                <g transform="matrix(1.07843,0,0,1.07843,21.1055,-78.1)">
                    <circle cx="176.887" cy="221.41" r="11.326" style="fill:rgb(0,217,243);stroke:black;stroke-width:0.89px;"/>
                </g>
            </g>
            <g transform="matrix(1,0,0,1,594.164,247.06)">
                <g transform="matrix(0.640568,0,0,0.640568,64.6128,47.4892)">
                    <path d="M230.437,137.687C252.271,137.687 269.997,155.4 269.997,177.217C269.997,199.034 252.271,216.746 230.437,216.746C208.604,216.746 190.878,199.034 190.878,177.217C190.878,155.4 208.604,137.687 230.437,137.687ZM230.437,157.452C241.354,157.452 250.217,166.308 250.217,177.217C250.217,188.125 241.354,196.982 230.437,196.982C219.52,196.982 210.657,188.125 210.657,177.217C210.657,166.308 219.52,157.452 230.437,157.452Z" style="stroke:black;stroke-width:1.5px;"/>
                </g>
                <g transform="matrix(1.07843,0,0,1.07843,21.1055,-78.1)">
                    <circle cx="176.887" cy="221.41" r="11.326" style="fill:rgb(0,217,243);stroke:black;stroke-width:0.89px;"/>
                </g>
            </g>
            <g transform="matrix(1,0,0,1,149.235,-44.1919)">
                <g transform="matrix(0.640568,0,0,0.640568,64.6128,47.4892)">
                    <path d="M230.437,137.687C252.271,137.687 269.997,155.4 269.997,177.217C269.997,199.034 252.271,216.746 230.437,216.746C208.604,216.746 190.878,199.034 190.878,177.217C190.878,155.4 208.604,137.687 230.437,137.687ZM230.437,157.452C241.354,157.452 250.217,166.308 250.217,177.217C250.217,188.125 241.354,196.982 230.437,196.982C219.52,196.982 210.657,188.125 210.657,177.217C210.657,166.308 219.52,157.452 230.437,157.452Z" style="stroke:black;stroke-width:1.5px;"/>
                </g>
                <g transform="matrix(1.07843,0,0,1.07843,21.1055,-78.1)">
                    <circle cx="176.887" cy="221.41" r="11.326" style="fill:rgb(0,217,243);stroke:black;stroke-width:0.89px;"/>
                </g>
            </g>
            <g transform="matrix(1,0,0,1,-29.6491,64.1813)">
                <g transform="matrix(0.640568,0,0,0.640568,64.6128,47.4892)">
                    <path d="M230.437,137.687C252.271,137.687 269.997,155.4 269.997,177.217C269.997,199.034 252.271,216.746 230.437,216.746C208.604,216.746 190.878,199.034 190.878,177.217C190.878,155.4 208.604,137.687 230.437,137.687ZM230.437,157.452C241.354,157.452 250.217,166.308 250.217,177.217C250.217,188.125 241.354,196.982 230.437,196.982C219.52,196.982 210.657,188.125 210.657,177.217C210.657,166.308 219.52,157.452 230.437,157.452Z" style="stroke:black;stroke-width:1.5px;"/>
                </g>
                <g transform="matrix(1.07843,0,0,1.07843,21.1055,-78.1)">
                    <circle cx="176.887" cy="221.41" r="11.326" style="fill:rgb(0,217,243);stroke:black;stroke-width:0.89px;"/>
                </g>
            </g>
            <g transform="matrix(1,0,0,1,1.21813,169.001)">
                <g transform="matrix(0.640568,0,0,0.640568,64.6128,47.4892)">
                    <path d="M230.437,137.687C252.271,137.687 269.997,155.4 269.997,177.217C269.997,199.034 252.271,216.746 230.437,216.746C208.604,216.746 190.878,199.034 190.878,177.217C190.878,155.4 208.604,137.687 230.437,137.687ZM230.437,157.452C241.354,157.452 250.217,166.308 250.217,177.217C250.217,188.125 241.354,196.982 230.437,196.982C219.52,196.982 210.657,188.125 210.657,177.217C210.657,166.308 219.52,157.452 230.437,157.452Z" style="stroke:black;stroke-width:1.5px;"/>
                </g>
                <g transform="matrix(1.07843,0,0,1.07843,21.1055,-78.1)">
                    <circle cx="176.887" cy="221.41" r="11.326" style="fill:rgb(0,217,243);stroke:black;stroke-width:0.89px;"/>
                </g>
            </g>
            <g transform="matrix(1,0,0,1,18.0959,241.842)">
                <g transform="matrix(0.640568,0,0,0.640568,64.6128,47.4892)">
                    <path d="M230.437,137.687C252.271,137.687 269.997,155.4 269.997,177.217C269.997,199.034 252.271,216.746 230.437,216.746C208.604,216.746 190.878,199.034 190.878,177.217C190.878,155.4 208.604,137.687 230.437,137.687ZM230.437,157.452C241.354,157.452 250.217,166.308 250.217,177.217C250.217,188.125 241.354,196.982 230.437,196.982C219.52,196.982 210.657,188.125 210.657,177.217C210.657,166.308 219.52,157.452 230.437,157.452Z" style="stroke:black;stroke-width:1.5px;"/>
                </g>
                <g transform="matrix(1.07843,0,0,1.07843,21.1055,-78.1)">
                    <circle cx="176.887" cy="221.41" r="11.326" style="fill:rgb(0,217,243);stroke:black;stroke-width:0.89px;"/>
                </g>
            </g>
        </g>
        <g id="Red-Dots" serif:id="Red Dots">
            <g>
                <g transform="matrix(1,0,0,1,26.6491,15.7661)">
                    <circle cx="383.64" cy="73.729" r="8.439" style="fill:rgb(255,85,81);stroke:black;stroke-width:0.96px;"/>
                </g>
                <g transform="matrix(1,0,0,1,1,3)">
                    <path d="M409.401,69.732C418.471,69.732 425.834,77.096 425.834,86.166C425.834,95.236 418.471,102.599 409.401,102.599C400.331,102.599 392.967,95.236 392.967,86.166C392.967,77.096 400.331,69.732 409.401,69.732ZM409.401,77.949C413.936,77.949 417.618,81.631 417.618,86.166C417.618,90.701 413.936,94.382 409.401,94.382C404.866,94.382 401.184,90.701 401.184,86.166C401.184,81.631 404.866,77.949 409.401,77.949Z" style="stroke:black;stroke-width:0.96px;"/>
                </g>
            </g>
            <g transform="matrix(1,0,0,1,365.093,88.8305)">
                <g transform="matrix(1,0,0,1,26.6491,15.7661)">
                    <circle cx="383.64" cy="73.729" r="8.439" style="fill:rgb(255,85,81);stroke:black;stroke-width:0.96px;"/>
                </g>
                <g transform="matrix(1,0,0,1,1,3)">
                    <path d="M409.401,69.732C418.471,69.732 425.834,77.096 425.834,86.166C425.834,95.236 418.471,102.599 409.401,102.599C400.331,102.599 392.967,95.236 392.967,86.166C392.967,77.096 400.331,69.732 409.401,69.732ZM409.401,77.949C413.936,77.949 417.618,81.631 417.618,86.166C417.618,90.701 413.936,94.382 409.401,94.382C404.866,94.382 401.184,90.701 401.184,86.166C401.184,81.631 404.866,77.949 409.401,77.949Z" style="stroke:black;stroke-width:0.96px;"/>
                </g>
            </g>
            <g transform="matrix(1,0,0,1,334.003,326.008)">
                <g transform="matrix(1,0,0,1,26.6491,15.7661)">
                    <circle cx="383.64" cy="73.729" r="8.439" style="fill:rgb(255,85,81);stroke:black;stroke-width:0.96px;"/>
                </g>
                <g transform="matrix(1,0,0,1,1,3)">
                    <path d="M409.401,69.732C418.471,69.732 425.834,77.096 425.834,86.166C425.834,95.236 418.471,102.599 409.401,102.599C400.331,102.599 392.967,95.236 392.967,86.166C392.967,77.096 400.331,69.732 409.401,69.732ZM409.401,77.949C413.936,77.949 417.618,81.631 417.618,86.166C417.618,90.701 413.936,94.382 409.401,94.382C404.866,94.382 401.184,90.701 401.184,86.166C401.184,81.631 404.866,77.949 409.401,77.949Z" style="stroke:black;stroke-width:0.96px;"/>
                </g>
            </g>
            <g transform="matrix(1,0,0,1,-138.576,284.258)">
                <g transform="matrix(1,0,0,1,26.6491,15.7661)">
                    <circle cx="383.64" cy="73.729" r="8.439" style="fill:rgb(255,85,81);stroke:black;stroke-width:0.96px;"/>
                </g>
                <g transform="matrix(1,0,0,1,1,3)">
                    <path d="M409.401,69.732C418.471,69.732 425.834,77.096 425.834,86.166C425.834,95.236 418.471,102.599 409.401,102.599C400.331,102.599 392.967,95.236 392.967,86.166C392.967,77.096 400.331,69.732 409.401,69.732ZM409.401,77.949C413.936,77.949 417.618,81.631 417.618,86.166C417.618,90.701 413.936,94.382 409.401,94.382C404.866,94.382 401.184,90.701 401.184,86.166C401.184,81.631 404.866,77.949 409.401,77.949Z" style="stroke:black;stroke-width:0.96px;"/>
                </g>
            </g>
        </g>
        <g id="Green-Dots" serif:id="Green Dots">
            <g transform="matrix(1,0,0,1,-117.256,325.12)">
                <g transform="matrix(1,0,0,1,26.6491,15.7661)">
                    <circle cx="383.64" cy="73.729" r="8.439" style="fill:rgb(26,195,81);stroke:black;stroke-width:0.96px;"/>
                </g>
                <g transform="matrix(1,0,0,1,1,3)">
                    <path d="M409.401,69.732C418.471,69.732 425.834,77.096 425.834,86.166C425.834,95.236 418.471,102.599 409.401,102.599C400.331,102.599 392.967,95.236 392.967,86.166C392.967,77.096 400.331,69.732 409.401,69.732ZM409.401,77.949C413.936,77.949 417.618,81.631 417.618,86.166C417.618,90.701 413.936,94.382 409.401,94.382C404.866,94.382 401.184,90.701 401.184,86.166C401.184,81.631 404.866,77.949 409.401,77.949Z" style="stroke:black;stroke-width:0.96px;"/>
                </g>
            </g>
            <g transform="matrix(1,0,0,1,-146.57,87.9422)">
                <g transform="matrix(1,0,0,1,26.6491,15.7661)">
                    <circle cx="383.64" cy="73.729" r="8.439" style="fill:rgb(26,195,81);stroke:black;stroke-width:0.96px;"/>
                </g>
                <g transform="matrix(1,0,0,1,1,3)">
                    <path d="M409.401,69.732C418.471,69.732 425.834,77.096 425.834,86.166C425.834,95.236 418.471,102.599 409.401,102.599C400.331,102.599 392.967,95.236 392.967,86.166C392.967,77.096 400.331,69.732 409.401,69.732ZM409.401,77.949C413.936,77.949 417.618,81.631 417.618,86.166C417.618,90.701 413.936,94.382 409.401,94.382C404.866,94.382 401.184,90.701 401.184,86.166C401.184,81.631 404.866,77.949 409.401,77.949Z" style="stroke:black;stroke-width:0.96px;"/>
                </g>
            </g>
            <g transform="matrix(1,0,0,1,214.97,-2.84217e-14)">
                <g transform="matrix(1,0,0,1,26.6491,15.7661)">
                    <circle cx="383.64" cy="73.729" r="8.439" style="fill:rgb(26,195,81);stroke:black;stroke-width:0.96px;"/>
                </g>
                <g transform="matrix(1,0,0,1,1,3)">
                    <path d="M409.401,69.732C418.471,69.732 425.834,77.096 425.834,86.166C425.834,95.236 418.471,102.599 409.401,102.599C400.331,102.599 392.967,95.236 392.967,86.166C392.967,77.096 400.331,69.732 409.401,69.732ZM409.401,77.949C413.936,77.949 417.618,81.631 417.618,86.166C417.618,90.701 413.936,94.382 409.401,94.382C404.866,94.382 401.184,90.701 401.184,86.166C401.184,81.631 404.866,77.949 409.401,77.949Z" style="stroke:black;stroke-width:0.96px;"/>
                </g>
            </g>
            <g transform="matrix(1,0,0,1,354.545,284.369)">
                <g transform="matrix(1,0,0,1,26.6491,15.7661)">
                    <circle cx="383.64" cy="73.729" r="8.439" style="fill:rgb(26,195,81);stroke:black;stroke-width:0.96px;"/>
                </g>
                <g transform="matrix(1,0,0,1,1,3)">
                    <path d="M409.401,69.732C418.471,69.732 425.834,77.096 425.834,86.166C425.834,95.236 418.471,102.599 409.401,102.599C400.331,102.599 392.967,95.236 392.967,86.166C392.967,77.096 400.331,69.732 409.401,69.732ZM409.401,77.949C413.936,77.949 417.618,81.631 417.618,86.166C417.618,90.701 413.936,94.382 409.401,94.382C404.866,94.382 401.184,90.701 401.184,86.166C401.184,81.631 404.866,77.949 409.401,77.949Z" style="stroke:black;stroke-width:0.96px;"/>
                </g>
            </g>
        </g>
        <g transform="matrix(1,0,0,1,0,-4)">
            <circle cx="520.439" cy="269.156" r="165.669" style="fill:rgb(1,205,237);stroke:black;stroke-width:15px;"/>
        </g>
        <g id="Lines">
            <path d="M340.113,308.242L292.703,307.242L268.049,331.226L237.07,331.114" style="fill:none;stroke:black;stroke-width:10px;"/>
            <path d="M390.746,359.099L647.466,359.763" style="fill:none;stroke:black;stroke-width:15px;"/>
            <path d="M393.411,166.113L392.523,166.113L647.466,167.89" style="fill:none;stroke:black;stroke-width:15px;"/>
            <path d="M578.179,111.926C578.179,111.926 600.967,213.372 600.818,262.969C600.674,311.223 577.29,409.509 577.29,409.509" style="fill:none;stroke:black;stroke-width:15px;"/>
            <path d="M519.774,423.945L520.327,102.043" style="fill:none;stroke:black;stroke-width:15px;"/>
            <path d="M359.656,265.603L681.664,265.603" style="fill:none;stroke:black;stroke-width:15px;"/>
            <path d="M344.555,328.231L312.576,327.784L298.251,340.109L298.251,363.093L280.597,381.083" style="fill:none;stroke:black;stroke-width:10px;"/>
            <path d="M697.212,206.087L750.51,205.422L768.717,187.321" style="fill:none;stroke:black;stroke-width:10px;"/>
            <path d="M691.77,183.879L740.515,183.767L739.627,159.007L754.951,145.459L797.59,145.57" style="fill:none;stroke:black;stroke-width:10px;"/>
            <path d="M682.11,170.555L729.191,121.698" style="fill:none;stroke:black;stroke-width:10px;"/>
            <path d="M350.773,349.769L336.671,351.769L315.682,374.865L315.905,396.849L303.693,406.844" style="fill:none;stroke:black;stroke-width:10px;"/>
            <path d="M152.681,286.034L245.064,286.034L245.288,249.614L328.118,249.279L328.342,286.922L245.064,286.034" style="fill:rgb(254,160,1);stroke:black;stroke-width:10px;"/>
            <path d="M332.118,227.406L199.761,228.294" style="fill:none;stroke:black;stroke-width:10px;"/>
            <path d="M352.549,183.879L298.363,182.102L298.363,157.23L285.926,146.57L239.735,145.682L285.926,146.57L298.363,157.23L298.363,182.102L352.549,183.879Z" style="fill:none;stroke:black;stroke-width:10px;"/>
            <path d="M342.778,205.198L286.815,206.087L274.378,189.209" style="fill:none;stroke:black;stroke-width:10px;"/>
            <path d="M355.214,170.555C337.744,154.269 320.274,137.983 302.804,121.698" style="fill:none;stroke:black;stroke-width:10px;"/>
            <path d="M701.765,228.629L827.792,227.406" style="fill:none;stroke:black;stroke-width:10px;"/>
            <path d="M883.756,287.811L791.372,285.146L791.148,250.502L713.866,250.39L713.866,286.034L791.372,285.146" style="fill:rgb(255,85,81);stroke:black;stroke-width:10px;"/>
            <path d="M704.318,308.353L745.18,308.242L769.941,331.338L802.032,331.114" style="fill:none;stroke:black;stroke-width:10px;"/>
            <path d="M697.212,327.784L724.749,328.561L738.962,339.332L739.627,363.205L752.281,374.753" style="fill:none;stroke:black;stroke-width:10px;"/>
            <g transform="matrix(1,0,0,1,-1,0)">
                <path d="M687.993,348.216L702.43,351.216L722.749,373.088L723.637,399.514L736.297,408.62" style="fill:none;stroke:black;stroke-width:10px;"/>
            </g>
            <g transform="matrix(1,0,0,1,-2,-2)">
                <path d="M522.216,101.267C612.425,101.267 685.664,174.505 685.664,264.715C685.664,354.924 612.425,428.163 522.216,428.163C432.006,428.163 358.767,354.924 358.767,264.715C358.767,174.505 432.006,101.267 522.216,101.267ZM522.216,182.991C567.32,182.991 603.94,219.61 603.94,264.715C603.94,309.82 567.32,346.439 522.216,346.439C477.111,346.439 440.491,309.82 440.491,264.715C440.491,219.61 477.111,182.991 522.216,182.991Z" style="fill:none;stroke:black;stroke-width:15px;"/>
            </g>
            <path d="M460.034,115.48C460.034,115.48 435.162,172.628 435.162,266.492C435.162,354.286 460.034,414.392 460.034,414.392" style="fill:none;stroke:black;stroke-width:15px;"/>
        </g>
        <g transform="matrix(1,0,0,1,3.5069,1.77661)">
            <text x="139.356px" y="545.419px" style="font-family:'Stencil', fantasy;font-size:115.331px;">WCR Studios</text>
        </g>
        <g transform="matrix(1,0,0,1,101.734,8.88305)">
            <text x="166.894px" y="598.717px" style="font-family:'Bauhaus93', 'Bauhaus 93', fantasy;font-size:48.364px;">We Make Local, Digital</text>
        </g>
    </g>
</svg>
